STARTFONT 2.1
FONT -FontForge-Bitstream Vera Sans-Book-R-Normal-Sans--48-460-75-75-P-288-ISO8859-1
SIZE 46 75 75
FONTBOUNDINGBOX 71 57 -9 -12
COMMENT "Generated by fontforge, http://fontforge.sourceforge.net"
COMMENT "Copyright (c) 2003 by Bitstream, Inc. All Rights Reserved."
STARTPROPERTIES 40
FOUNDRY "FontForge"
FAMILY_NAME "Bitstream Vera Sans"
WEIGHT_NAME "Book"
SLANT "R"
SETWIDTH_NAME "Normal"
ADD_STYLE_NAME "Sans"
PIXEL_SIZE 48
POINT_SIZE 460
RESOLUTION_X 75
RESOLUTION_Y 75
SPACING "P"
AVERAGE_WIDTH 288
CHARSET_REGISTRY "ISO8859"
CHARSET_ENCODING "1"
FONTNAME_REGISTRY ""
CHARSET_COLLECTIONS "ISO8859-9 ISOLatin1Encoding"
FONT_NAME "BitstreamVeraSans-Roman"
FACE_NAME "Bitstream Vera Sans"
COPYRIGHT "Copyright (c) 2003 by Bitstream, Inc. All Rights Reserved."
FONT_VERSION "Release 1.10"
FONT_ASCENT 36
FONT_DESCENT 12
UNDERLINE_POSITION -7
UNDERLINE_THICKNESS 4
X_HEIGHT 25
CAP_HEIGHT 34
RAW_ASCENT 759
RAW_DESCENT 240
NORM_SPACE 15
RELATIVE_WEIGHT 40
RELATIVE_SETWIDTH 50
SUPERSCRIPT_X 0
SUPERSCRIPT_Y 13
SUPERSCRIPT_SIZE 28
SUBSCRIPT_X 0
SUBSCRIPT_Y -10
SUBSCRIPT_SIZE 28
FIGURE_WIDTH 31
AVG_LOWERCASE_WIDTH 272
AVG_UPPERCASE_WIDTH 320
ENDPROPERTIES
CHARS 268
STARTCHAR space
ENCODING 32
SWIDTH 317 0
DWIDTH 15 0
BBX 1 1 0 0
BITMAP
00
ENDCHAR
STARTCHAR exclam
ENCODING 33
SWIDTH 400 0
DWIDTH 19 0
BBX 5 35 7 0
BITMAP
F8
F8
F8
F8
F8
F8
F8
F8
F8
F8
F8
F8
F8
F8
F8
F8
F8
F8
F8
F8
F8
F8
F8
F8
00
00
00
00
00
F8
F8
F8
F8
F8
F8
ENDCHAR
STARTCHAR quotedbl
ENCODING 34
SWIDTH 459 0
DWIDTH 22 0
BBX 13 13 5 22
BITMAP
F078
F078
F078
F078
F078
F078
F078
F078
F078
F078
F078
F078
F078
ENDCHAR
STARTCHAR numbersign
ENCODING 35
SWIDTH 837 0
DWIDTH 40 0
BBX 33 35 4 0
BITMAP
000780F000
000780F000
000780E000
000781E000
000701E000
000F01E000
000F01E000
000F03C000
000E03C000
001E03C000
1FFFFFFF80
1FFFFFFF80
1FFFFFFF80
1FFFFFFF80
003C078000
003C070000
00380F0000
00780F0000
00780F0000
00781E0000
00F01E0000
FFFFFFFC00
FFFFFFFC00
FFFFFFFC00
FFFFFFFC00
01E03C0000
01E03C0000
01E0780000
01C0780000
03C0780000
03C0780000
03C0F00000
0380F00000
0780F00000
0780F00000
ENDCHAR
STARTCHAR dollar
ENCODING 36
SWIDTH 636 0
DWIDTH 31 0
BBX 22 44 4 -7
BITMAP
003000
003000
003000
003000
003000
003000
01FFC0
0FFFF0
1FFFF0
3FFFF0
7E3070
F83000
F83000
F03000
F03000
F03000
F83000
FC3000
7F3000
3FF000
1FFF00
07FFC0
01FFF0
003FF8
0031F8
00307C
00303C
00303C
00303C
00303C
00307C
8030F8
F833F8
FFFFF0
FFFFE0
7FFFC0
07FE00
003000
003000
003000
003000
003000
003000
003000
ENDCHAR
STARTCHAR percent
ENCODING 37
SWIDTH 950 0
DWIDTH 46 0
BBX 40 37 3 -1
BITMAP
07E0000700
1FF8000F00
3FFC000E00
7C3C001E00
781E001C00
781E003800
F00F007800
F00F007000
F00F00F000
F00F00E000
F00F01C000
F00F03C000
F00F038000
781E078000
781E070000
7C3E0F0000
3FFC1E0000
1FF81C0000
07E03C07E0
0000381FF8
0000783FFC
0000F07C3E
0000E0781E
0001E0781E
0001C0F00F
0003C0F00F
000380F00F
000700F00F
000F00F00F
000E00F00F
001E00F00F
001C00781E
003800781E
0078007C3C
0070003FFC
00F0001FF8
00E00007E0
ENDCHAR
STARTCHAR ampersand
ENCODING 38
SWIDTH 779 0
DWIDTH 37 0
BBX 33 37 3 -1
BITMAP
003F800000
00FFF00000
03FFF80000
07FFF80000
07E0780000
0F80080000
0F80000000
0F00000000
0F00000000
0F00000000
0F00000000
0F80000000
07C0000000
07E0000000
03F0000000
07F8000000
0FFC000000
1E7E001E00
3E3F001E00
7C1F801E00
7C0FC03C00
7807E03C00
F803F03C00
F001F87C00
F000FC7800
F0007EF800
F0003FF000
F0001FF000
F8000FE000
780007E000
7C000FF000
3F001FF800
3FC0FFFC00
1FFFFE7E00
07FFFC3F00
03FFF01F80
007F800000
ENDCHAR
STARTCHAR quotesingle
ENCODING 39
SWIDTH 274 0
DWIDTH 13 0
BBX 4 13 5 22
BITMAP
F0
F0
F0
F0
F0
F0
F0
F0
F0
F0
F0
F0
F0
ENDCHAR
STARTCHAR parenleft
ENCODING 40
SWIDTH 390 0
DWIDTH 19 0
BBX 11 43 4 -7
BITMAP
03E0
03C0
0780
0780
0F00
0F00
1E00
1E00
3E00
3C00
3C00
7800
7800
7800
7800
F800
F000
F000
F000
F000
F000
F000
F000
F000
F000
F000
F000
7800
7800
7800
7800
7800
3C00
3C00
3E00
1E00
1E00
0F00
0F00
0780
0780
03C0
03E0
ENDCHAR
STARTCHAR parenright
ENCODING 41
SWIDTH 390 0
DWIDTH 19 0
BBX 11 43 4 -7
BITMAP
F800
7800
3C00
3C00
1E00
1E00
0F00
0F00
0F00
0780
0780
0780
03C0
03C0
03C0
03C0
01E0
01E0
01E0
01E0
01E0
01E0
01E0
01E0
01E0
01E0
01E0
03C0
03C0
03C0
03C0
0780
0780
0780
0F00
0F00
0F00
1E00
1E00
3C00
3C00
7800
F800
ENDCHAR
STARTCHAR asterisk
ENCODING 42
SWIDTH 500 0
DWIDTH 24 0
BBX 21 22 2 14
BITMAP
007000
007000
007000
007000
407010
F07078
F870F8
3E73E0
0F7780
03FE00
01FC00
01FC00
03FE00
0F7780
3E73E0
F870F8
F07078
407010
007000
007000
007000
007000
ENDCHAR
STARTCHAR plus
ENCODING 43
SWIDTH 837 0
DWIDTH 40 0
BBX 30 30 5 0
BITMAP
00078000
00078000
00078000
00078000
00078000
00078000
00078000
00078000
00078000
00078000
00078000
00078000
00078000
FFFFFFFC
FFFFFFFC
FFFFFFFC
FFFFFFFC
00078000
00078000
00078000
00078000
00078000
00078000
00078000
00078000
00078000
00078000
00078000
00078000
00078000
ENDCHAR
STARTCHAR comma
ENCODING 44
SWIDTH 317 0
DWIDTH 15 0
BBX 6 12 4 -6
BITMAP
3C
3C
3C
3C
3C
3C
78
78
70
70
F0
E0
ENDCHAR
STARTCHAR hyphen
ENCODING 45
SWIDTH 360 0
DWIDTH 17 0
BBX 13 4 2 11
BITMAP
FFF8
FFF8
FFF8
FFF8
ENDCHAR
STARTCHAR period
ENCODING 46
SWIDTH 317 0
DWIDTH 15 0
BBX 4 6 6 0
BITMAP
F0
F0
F0
F0
F0
F0
ENDCHAR
STARTCHAR slash
ENCODING 47
SWIDTH 336 0
DWIDTH 16 0
BBX 16 39 0 -4
BITMAP
000F
001F
001E
001E
003E
003C
003C
003C
0078
0078
0078
00F8
00F0
00F0
01F0
01E0
01E0
01E0
03C0
03C0
03C0
0780
0780
0780
0F80
0F00
0F00
1F00
1E00
1E00
1E00
3C00
3C00
3C00
7C00
7800
7800
F800
F000
ENDCHAR
STARTCHAR zero
ENCODING 48
SWIDTH 636 0
DWIDTH 31 0
BBX 24 37 3 -1
BITMAP
007E00
03FFC0
07FFE0
0FFFF0
1F81F8
1F00F8
3E007C
3C003C
7C003E
78001E
78001E
78001E
F0000F
F0000F
F0000F
F0000F
F0000F
F0000F
F0000F
F0000F
F0000F
F0000F
F0000F
F0000F
F0000F
78001E
78001E
78001E
7C003E
3C003C
3E007C
1F00F8
1F81F8
0FFFF0
07FFE0
03FFC0
00FE00
ENDCHAR
STARTCHAR one
ENCODING 49
SWIDTH 636 0
DWIDTH 31 0
BBX 20 35 6 0
BITMAP
03F000
3FF000
FFF000
FFF000
FCF000
C0F000
00F000
00F000
00F000
00F000
00F000
00F000
00F000
00F000
00F000
00F000
00F000
00F000
00F000
00F000
00F000
00F000
00F000
00F000
00F000
00F000
00F000
00F000
00F000
00F000
00F000
FFFFF0
FFFFF0
FFFFF0
FFFFF0
ENDCHAR
STARTCHAR two
ENCODING 50
SWIDTH 636 0
DWIDTH 31 0
BBX 22 36 4 0
BITMAP
07FC00
3FFF80
FFFFC0
FFFFF0
FE03F0
E000F8
800078
00007C
00003C
00003C
00003C
00003C
00003C
00007C
000078
0000F8
0001F0
0003E0
0003E0
0007C0
000F80
001F00
003E00
007C00
00F800
01F000
03E000
07C000
0F8000
1F0000
7E0000
FC0000
FFFFFC
FFFFFC
FFFFFC
FFFFFC
ENDCHAR
STARTCHAR three
ENCODING 51
SWIDTH 636 0
DWIDTH 31 0
BBX 23 37 4 -1
BITMAP
03FE00
3FFF80
7FFFE0
7FFFF0
7C03F8
4000F8
00007C
00003C
00003C
00003C
00003C
00003C
000078
0000F8
0003F0
03FFE0
03FF80
03FFC0
03FFF0
0003F8
0000FC
00007C
00003E
00001E
00001E
00001E
00001E
00001E
00001E
00003C
80007C
E000FC
F803F8
FFFFF0
FFFFE0
7FFF80
07FC00
ENDCHAR
STARTCHAR four
ENCODING 52
SWIDTH 636 0
DWIDTH 31 0
BBX 26 35 2 0
BITMAP
0001F800
0003F800
0007F800
0007F800
000F7800
001E7800
001E7800
003C7800
00787800
00787800
00F07800
01E07800
01E07800
03C07800
07807800
07807800
0F007800
1E007800
1E007800
3C007800
7C007800
78007800
F0007800
FFFFFFC0
FFFFFFC0
FFFFFFC0
FFFFFFC0
00007800
00007800
00007800
00007800
00007800
00007800
00007800
00007800
ENDCHAR
STARTCHAR five
ENCODING 53
SWIDTH 636 0
DWIDTH 31 0
BBX 23 36 4 -1
BITMAP
7FFFF0
7FFFF0
7FFFF0
7FFFF0
780000
780000
780000
780000
780000
780000
780000
780000
7BFC00
7FFF80
7FFFC0
7FFFF0
7807F8
4001F8
00007C
00003C
00003E
00001E
00001E
00001E
00001E
00001E
00001E
00003E
00003C
80007C
E000F8
FC07F8
FFFFF0
FFFFE0
7FFF80
07FC00
ENDCHAR
STARTCHAR six
ENCODING 54
SWIDTH 636 0
DWIDTH 31 0
BBX 24 37 3 -1
BITMAP
001FF0
00FFFC
01FFFC
07FFFC
0FE00C
0F8000
1F0000
3E0000
3C0000
7C0000
780000
780000
780000
F07F00
F1FFE0
F3FFF0
F7FFF8
FFC0FC
FF807E
FF003E
FE001E
FE001F
FC000F
FC000F
FC000F
7C000F
7C000F
7C000F
7E001F
3E001E
3F003E
1F807C
1FC0FC
0FFFF8
07FFF0
03FFE0
007F00
ENDCHAR
STARTCHAR seven
ENCODING 55
SWIDTH 636 0
DWIDTH 31 0
BBX 23 35 4 0
BITMAP
FFFFFE
FFFFFE
FFFFFE
FFFFFC
00003C
00007C
000078
0000F8
0000F0
0000F0
0001E0
0001E0
0003E0
0003C0
0007C0
000780
000780
000F80
000F00
001F00
001E00
001E00
003E00
003C00
007C00
007800
007800
00F000
00F000
01F000
01E000
03E000
03C000
03C000
07C000
ENDCHAR
STARTCHAR eight
ENCODING 56
SWIDTH 636 0
DWIDTH 31 0
BBX 24 37 3 -1
BITMAP
00FF00
07FFE0
0FFFF0
1FFFF8
3F81FC
3E007C
7C003E
78001E
78001E
78001E
78001E
78001E
3C003C
3E007C
1F81F8
0FFFF0
03FFC0
07FFE0
1FFFF8
3F81FC
3E007C
78003E
78001E
F0000F
F0000F
F0000F
F0000F
F0000F
F0000F
F8001F
7C003E
7E007E
3F81FC
3FFFFC
1FFFF0
07FFE0
00FF00
ENDCHAR
STARTCHAR nine
ENCODING 57
SWIDTH 636 0
DWIDTH 31 0
BBX 24 37 3 -1
BITMAP
00FE00
07FF80
0FFFE0
1FFFF0
3F03F8
7E01F8
7C00FC
78007C
F8007E
F0003E
F0003E
F0003E
F0003F
F0003F
F0003F
F8007F
78007F
7C00FF
7E01FF
3F03FF
1FFFEF
0FFFCF
07FF8F
00FE0F
00001E
00001E
00001E
00003E
00003C
00007C
0000F8
0001F0
3007F0
3FFFE0
3FFF80
3FFF00
0FF800
ENDCHAR
STARTCHAR colon
ENCODING 58
SWIDTH 336 0
DWIDTH 16 0
BBX 5 25 6 0
BITMAP
F8
F8
F8
F8
F8
F8
00
00
00
00
00
00
00
00
00
00
00
00
00
F8
F8
F8
F8
F8
F8
ENDCHAR
STARTCHAR semicolon
ENCODING 59
SWIDTH 336 0
DWIDTH 16 0
BBX 6 31 4 -6
BITMAP
3C
3C
3C
3C
3C
3C
00
00
00
00
00
00
00
00
00
00
00
00
00
3C
3C
3C
3C
3C
3C
78
78
70
70
F0
E0
ENDCHAR
STARTCHAR less
ENCODING 60
SWIDTH 837 0
DWIDTH 40 0
BBX 30 26 5 2
BITMAP
00000004
0000003C
000001FC
00000FFC
00003FF8
0001FFE0
000FFF00
003FF800
01FFC000
0FFF0000
7FF80000
FFC00000
FF000000
FF000000
FFC00000
7FF80000
0FFF0000
01FFE000
003FF800
000FFF00
0001FFE0
00003FF8
00000FFC
000001FC
0000003C
00000004
ENDCHAR
STARTCHAR equal
ENCODING 61
SWIDTH 837 0
DWIDTH 40 0
BBX 30 14 5 8
BITMAP
FFFFFFFC
FFFFFFFC
FFFFFFFC
FFFFFFFC
00000000
00000000
00000000
00000000
00000000
00000000
FFFFFFFC
FFFFFFFC
FFFFFFFC
FFFFFFFC
ENDCHAR
STARTCHAR greater
ENCODING 62
SWIDTH 837 0
DWIDTH 40 0
BBX 30 26 5 2
BITMAP
80000000
F0000000
FE000000
FFC00000
7FF00000
1FFE0000
03FFC000
007FF000
001FFE00
0003FFC0
00007FF8
00000FFC
000003FC
000003FC
00000FFC
00007FF8
0003FFC0
000FFE00
007FF000
03FFC000
1FFE0000
7FF00000
FFC00000
FE000000
F0000000
80000000
ENDCHAR
STARTCHAR question
ENCODING 63
SWIDTH 530 0
DWIDTH 25 0
BBX 19 36 3 0
BITMAP
07F800
1FFE00
7FFF80
FFFF80
FC0FC0
E003E0
8003E0
0001E0
0001E0
0001E0
0001E0
0003C0
0007C0
000F80
003F80
007F00
00FE00
01FC00
01F800
03E000
03E000
03C000
03C000
03C000
03C000
03C000
03C000
000000
000000
000000
03E000
03E000
03E000
03E000
03E000
03E000
ENDCHAR
STARTCHAR at
ENCODING 64
SWIDTH 1000 0
DWIDTH 48 0
BBX 42 42 3 -8
BITMAP
00007FE00000
0007FFFC0000
001FFFFF0000
003FFFFFC000
00FF803FE000
01FC0007F000
03F00001F800
07E000007C00
0F8000003E00
1F8000001F00
1F0000000F00
3E007E1E0F80
3C01FF9E0780
7C03FFDE0780
7807FFFE03C0
780FC0FE03C0
F80F807E03C0
F01F003E03C0
F01E001E03C0
F01E001E03C0
F01E001E03C0
F01E001E07C0
F01E001E0780
F01E001E0780
F01F003E0F00
F80F807E1F00
780FC0FE7E00
7807FFFFFC00
7C03FFDFF000
3C01FF9FE000
3E007E1E0000
1F0000000000
1F0000000000
0F8000000000
07E000008000
03F00003C000
01FC000FC000
00FF803FC000
007FFFFF8000
001FFFFE0000
0007FFF80000
0000FF800000
ENDCHAR
STARTCHAR A
ENCODING 65
SWIDTH 684 0
DWIDTH 33 0
BBX 32 35 0 0
BITMAP
0007E000
0007E000
000FF000
000FF000
000FF000
001FF800
001E7800
003E7C00
003C3C00
003C3C00
007C3E00
00781E00
00781E00
00F00F00
00F00F00
01F00F80
01E00780
01E00780
03E007C0
03C003C0
03C003C0
078001E0
07FFFFE0
0FFFFFF0
0FFFFFF0
0FFFFFF0
1F0000F8
1E000078
3E00007C
3C00003C
3C00003C
7C00003E
7800001E
7800001E
F000000F
ENDCHAR
STARTCHAR B
ENCODING 66
SWIDTH 686 0
DWIDTH 33 0
BBX 25 35 5 0
BITMAP
FFFF8000
FFFFF000
FFFFF800
FFFFFC00
F000FE00
F0003F00
F0001F00
F0000F00
F0000F00
F0000F00
F0000F00
F0001F00
F0003E00
F000FE00
FFFFFC00
FFFFF000
FFFFF800
FFFFFC00
F0007E00
F0001F00
F0000F00
F0000F80
F0000780
F0000780
F0000780
F0000780
F0000780
F0000F80
F0000F80
F0001F00
F0007F00
FFFFFE00
FFFFFC00
FFFFF000
FFFF8000
ENDCHAR
STARTCHAR C
ENCODING 67
SWIDTH 698 0
DWIDTH 34 0
BBX 28 37 3 -1
BITMAP
000FFC00
007FFF80
01FFFFE0
03FFFFF0
07F807F0
0FC000F0
1F800030
1F000010
3E000000
3C000000
78000000
78000000
78000000
F8000000
F0000000
F0000000
F0000000
F0000000
F0000000
F0000000
F0000000
F0000000
F0000000
F0000000
78000000
78000000
78000000
3C000000
3E000000
1F000010
1F800030
0FC000F0
07F807F0
03FFFFF0
01FFFFE0
007FFF80
000FFC00
ENDCHAR
STARTCHAR D
ENCODING 68
SWIDTH 770 0
DWIDTH 37 0
BBX 29 35 5 0
BITMAP
FFFF0000
FFFFE000
FFFFFC00
FFFFFE00
F001FF80
F0001F80
F0000FC0
F00003E0
F00001E0
F00001F0
F00000F0
F00000F0
F00000F8
F0000078
F0000078
F0000078
F0000078
F0000078
F0000078
F0000078
F0000078
F0000078
F00000F8
F00000F0
F00000F0
F00001F0
F00001E0
F00003E0
F0000FC0
F0001F80
F001FF00
FFFFFE00
FFFFFC00
FFFFE000
FFFE0000
ENDCHAR
STARTCHAR E
ENCODING 69
SWIDTH 631 0
DWIDTH 30 0
BBX 23 35 5 0
BITMAP
FFFFFE
FFFFFE
FFFFFE
FFFFFE
F00000
F00000
F00000
F00000
F00000
F00000
F00000
F00000
F00000
F00000
FFFFFC
FFFFFC
FFFFFC
FFFFFC
F00000
F00000
F00000
F00000
F00000
F00000
F00000
F00000
F00000
F00000
F00000
F00000
F00000
FFFFFE
FFFFFE
FFFFFE
FFFFFE
ENDCHAR
STARTCHAR F
ENCODING 70
SWIDTH 575 0
DWIDTH 28 0
BBX 20 35 5 0
BITMAP
FFFFF0
FFFFF0
FFFFF0
FFFFF0
F00000
F00000
F00000
F00000
F00000
F00000
F00000
F00000
F00000
F00000
FFFFC0
FFFFC0
FFFFC0
FFFFC0
F00000
F00000
F00000
F00000
F00000
F00000
F00000
F00000
F00000
F00000
F00000
F00000
F00000
F00000
F00000
F00000
F00000
ENDCHAR
STARTCHAR G
ENCODING 71
SWIDTH 774 0
DWIDTH 37 0
BBX 31 37 3 -1
BITMAP
0007FE00
003FFFE0
00FFFFF8
03FFFFFC
07F803FC
0FC0007C
1F80000C
1F000004
3E000000
3C000000
78000000
78000000
78000000
F8000000
F0000000
F0000000
F0000000
F0000000
F0001FFE
F0001FFE
F0001FFE
F0001FFE
F000001E
F800001E
7800001E
7800001E
7C00001E
3C00001E
3E00001E
1F00001E
1F80001E
0FE0003E
07FC01FE
03FFFFFC
00FFFFF8
003FFFC0
0007FE00
ENDCHAR
STARTCHAR H
ENCODING 72
SWIDTH 751 0
DWIDTH 36 0
BBX 27 35 5 0
BITMAP
F00001E0
F00001E0
F00001E0
F00001E0
F00001E0
F00001E0
F00001E0
F00001E0
F00001E0
F00001E0
F00001E0
F00001E0
F00001E0
F00001E0
FFFFFFE0
FFFFFFE0
FFFFFFE0
FFFFFFE0
F00001E0
F00001E0
F00001E0
F00001E0
F00001E0
F00001E0
F00001E0
F00001E0
F00001E0
F00001E0
F00001E0
F00001E0
F00001E0
F00001E0
F00001E0
F00001E0
F00001E0
ENDCHAR
STARTCHAR I
ENCODING 73
SWIDTH 294 0
DWIDTH 14 0
BBX 4 35 5 0
BITMAP
F0
F0
F0
F0
F0
F0
F0
F0
F0
F0
F0
F0
F0
F0
F0
F0
F0
F0
F0
F0
F0
F0
F0
F0
F0
F0
F0
F0
F0
F0
F0
F0
F0
F0
F0
ENDCHAR
STARTCHAR J
ENCODING 74
SWIDTH 294 0
DWIDTH 14 0
BBX 11 45 -2 -10
BITMAP
01E0
01E0
01E0
01E0
01E0
01E0
01E0
01E0
01E0
01E0
01E0
01E0
01E0
01E0
01E0
01E0
01E0
01E0
01E0
01E0
01E0
01E0
01E0
01E0
01E0
01E0
01E0
01E0
01E0
01E0
01E0
01E0
01E0
01E0
01E0
01E0
01E0
03E0
03C0
03C0
0FC0
FF80
FF00
FE00
F800
ENDCHAR
STARTCHAR K
ENCODING 75
SWIDTH 655 0
DWIDTH 31 0
BBX 28 35 5 0
BITMAP
F0000FC0
F0001F80
F0003F00
F0007E00
F000FC00
F001F800
F003F000
F007E000
F01F8000
F03F0000
F07E0000
F0FC0000
F1F80000
F3F00000
F7E00000
FFC00000
FF800000
FFC00000
F7E00000
F3F00000
F1F80000
F0FC0000
F07E0000
F03F0000
F01F8000
F00FC000
F007E000
F003F000
F001F800
F0007C00
F0003E00
F0001F00
F0000F80
F00007C0
F00003F0
ENDCHAR
STARTCHAR L
ENCODING 76
SWIDTH 557 0
DWIDTH 27 0
BBX 22 35 5 0
BITMAP
F00000
F00000
F00000
F00000
F00000
F00000
F00000
F00000
F00000
F00000
F00000
F00000
F00000
F00000
F00000
F00000
F00000
F00000
F00000
F00000
F00000
F00000
F00000
F00000
F00000
F00000
F00000
F00000
F00000
F00000
F00000
FFFFFC
FFFFFC
FFFFFC
FFFFFC
ENDCHAR
STARTCHAR M
ENCODING 77
SWIDTH 862 0
DWIDTH 41 0
BBX 32 35 5 0
BITMAP
FE00007F
FE00007F
FF0000FF
FF0000FF
FF0000FF
F78001FF
F78001EF
F7C003EF
F3C003CF
F3C003CF
F1E007CF
F1E0078F
F1F00F8F
F0F00F0F
F0F00F0F
F0781F0F
F0781E0F
F07C3E0F
F03C3C0F
F03C3C0F
F03E7C0F
F01E780F
F01FF80F
F00FF00F
F00FF00F
F00FF00F
F007E00F
F007E00F
F000000F
F000000F
F000000F
F000000F
F000000F
F000000F
F000000F
ENDCHAR
STARTCHAR N
ENCODING 78
SWIDTH 748 0
DWIDTH 36 0
BBX 26 35 5 0
BITMAP
FC0003C0
FE0003C0
FE0003C0
FF0003C0
FF0003C0
FF8003C0
F78003C0
F7C003C0
F3C003C0
F3E003C0
F1F003C0
F1F003C0
F0F803C0
F07803C0
F07C03C0
F03C03C0
F03E03C0
F01E03C0
F01F03C0
F00F03C0
F00F83C0
F00783C0
F007C3C0
F003C3C0
F003E3C0
F001F3C0
F000F3C0
F000FBC0
F0007BC0
F0007FC0
F0003FC0
F0003FC0
F0001FC0
F0001FC0
F0000FC0
ENDCHAR
STARTCHAR O
ENCODING 79
SWIDTH 787 0
DWIDTH 38 0
BBX 32 37 3 -1
BITMAP
000FF000
007FFE00
01FFFF80
03FFFFC0
07F00FE0
0FC003F0
1F8001F8
1F0000F8
3E00007C
3C00003C
7C00003E
7800001E
7800001E
F800001F
F000000F
F000000F
F000000F
F000000F
F000000F
F000000F
F000000F
F000000F
F000000F
F800001F
7800001E
7800001E
7C00003E
3C00003C
3E00007C
1F0000F8
1F8001F8
0FC003F0
07F00FE0
03FFFFC0
01FFFF80
007FFE00
000FF000
ENDCHAR
STARTCHAR P
ENCODING 80
SWIDTH 603 0
DWIDTH 29 0
BBX 23 35 5 0
BITMAP
FFFF00
FFFFC0
FFFFF0
FFFFF8
F001F8
F0007C
F0003C
F0003E
F0001E
F0001E
F0001E
F0001E
F0001E
F0003E
F0003C
F0007C
F001F8
FFFFF8
FFFFF0
FFFFC0
FFFE00
F00000
F00000
F00000
F00000
F00000
F00000
F00000
F00000
F00000
F00000
F00000
F00000
F00000
F00000
ENDCHAR
STARTCHAR Q
ENCODING 81
SWIDTH 787 0
DWIDTH 38 0
BBX 32 42 3 -6
BITMAP
000FF000
007FFE00
01FFFF80
03FFFFC0
07F00FE0
0FC003F0
1F8001F8
1F0000F8
3E00007C
3C00003C
7C00003E
7800001E
7800001E
F800001F
F000000F
F000000F
F000000F
F000000F
F000000F
F000000F
F000000F
F000000F
F000000F
F800001F
7800001E
7800001E
7C00003E
3C00003C
3E00007C
1F0000FC
1F8001F8
0FC003F0
07F00FE0
03FFFFC0
01FFFF80
007FFE00
000FFF00
00001F80
00000FC0
000007E0
000003F0
000001F8
ENDCHAR
STARTCHAR R
ENCODING 82
SWIDTH 694 0
DWIDTH 33 0
BBX 28 35 5 0
BITMAP
FFFF0000
FFFFE000
FFFFF000
FFFFF800
F001FC00
F0007C00
F0003E00
F0001E00
F0001E00
F0001E00
F0001E00
F0001E00
F0001E00
F0003C00
F0007C00
F001FC00
FFFFF800
FFFFF000
FFFFC000
FFFFE000
F003F000
F000F800
F0007C00
F0007C00
F0003E00
F0003E00
F0001F00
F0000F00
F0000F80
F0000780
F00007C0
F00003C0
F00003E0
F00001E0
F00001F0
ENDCHAR
STARTCHAR S
ENCODING 83
SWIDTH 634 0
DWIDTH 30 0
BBX 25 37 3 -1
BITMAP
00FFC000
07FFFC00
0FFFFE00
1FFFFE00
3F807E00
7C000E00
78000200
F8000000
F0000000
F0000000
F0000000
F0000000
F8000000
FC000000
7F000000
7FF00000
3FFF8000
1FFFF000
07FFF800
01FFFC00
001FFE00
0000FF00
00003F00
00000F80
00000F80
00000780
00000780
00000780
00000780
00000F80
80000F00
F0001F00
FE00FE00
FFFFFC00
FFFFF800
3FFFF000
03FF0000
ENDCHAR
STARTCHAR T
ENCODING 84
SWIDTH 610 0
DWIDTH 29 0
BBX 28 35 0 0
BITMAP
FFFFFFF0
FFFFFFF0
FFFFFFF0
FFFFFFF0
000F0000
000F0000
000F0000
000F0000
000F0000
000F0000
000F0000
000F0000
000F0000
000F0000
000F0000
000F0000
000F0000
000F0000
000F0000
000F0000
000F0000
000F0000
000F0000
000F0000
000F0000
000F0000
000F0000
000F0000
000F0000
000F0000
000F0000
000F0000
000F0000
000F0000
000F0000
ENDCHAR
STARTCHAR U
ENCODING 85
SWIDTH 731 0
DWIDTH 35 0
BBX 27 36 5 -1
BITMAP
F00001E0
F00001E0
F00001E0
F00001E0
F00001E0
F00001E0
F00001E0
F00001E0
F00001E0
F00001E0
F00001E0
F00001E0
F00001E0
F00001E0
F00001E0
F00001E0
F00001E0
F00001E0
F00001E0
F00001E0
F00001E0
F00001E0
F00001E0
F00001E0
F00001E0
F00001E0
F80003E0
780003C0
780007C0
7C0007C0
3E000F80
1FC07F00
1FFFFF00
07FFFC00
03FFF800
007FC000
ENDCHAR
STARTCHAR V
ENCODING 86
SWIDTH 684 0
DWIDTH 33 0
BBX 32 35 0 0
BITMAP
F000000F
7800001E
7800001E
7C00003E
3C00003C
3C00003C
3E00007C
1E000078
1F0000F8
0F0000F0
0F0000F0
0F8001F0
078001E0
078001E0
03C003E0
03C003C0
03E007C0
01E00780
01E00780
01F00F80
00F00F00
00F00F00
00781E00
00781E00
007C3E00
003C3C00
003C3C00
003E7C00
001E7800
001F7800
000FF000
000FF000
000FF000
0007E000
0007E000
ENDCHAR
STARTCHAR W
ENCODING 87
SWIDTH 988 0
DWIDTH 47 0
BBX 44 35 2 0
BITMAP
F0001F8000F0
F8001F8001F0
78003FC001E0
78003FC001E0
78003FC001E0
78003FC003E0
3C007FE003C0
3C0079E003C0
3C0079E003C0
3C0079E007C0
1E00F9F00780
1E00F0F00780
1E00F0F00780
1E00F0F00F80
0F01F0F80F00
0F01E0780F00
0F01E0780F00
0F01E0781F00
0781E0781E00
0783C03C1E00
0783C03C1E00
0783C03C3E00
03C3C03C3C00
03C7801E3C00
03C7801E3C00
03C7801E7C00
01E7801E7800
01EF000F7800
01EF000F7800
01EF000F7800
00FF000FF000
00FE0007F000
00FE0007F000
00FE0007F000
007E0007E000
ENDCHAR
STARTCHAR X
ENCODING 88
SWIDTH 685 0
DWIDTH 33 0
BBX 30 35 1 0
BITMAP
3E0000F8
1F0001F0
0F0001E0
0F8003E0
07C007C0
03C00780
03E00F80
01F01F00
00F01E00
00F83E00
007C7C00
007C7800
003EF800
001FF000
001FF000
000FE000
0007C000
000FC000
001FE000
003FF000
003EF000
007CF800
00F87C00
00F83C00
01F03E00
03E01F00
03E00F00
07C00F80
0F8007C0
0F8003C0
1F0003E0
3E0001F0
3E0000F0
7C0000F8
F800007C
ENDCHAR
STARTCHAR Y
ENCODING 89
SWIDTH 610 0
DWIDTH 29 0
BBX 28 35 0 0
BITMAP
F80001F0
7C0003E0
3C0003C0
3E0007C0
1F000F80
0F000F00
0F801F00
07C03E00
03C03C00
03E07C00
01F0F800
00F0F000
00F9F000
007FE000
007FE000
003FC000
001F8000
001F8000
000F0000
000F0000
000F0000
000F0000
000F0000
000F0000
000F0000
000F0000
000F0000
000F0000
000F0000
000F0000
000F0000
000F0000
000F0000
000F0000
000F0000
ENDCHAR
STARTCHAR Z
ENCODING 90
SWIDTH 685 0
DWIDTH 33 0
BBX 29 35 2 0
BITMAP
7FFFFFF0
7FFFFFF0
7FFFFFF0
7FFFFFF0
000003E0
000007C0
000007C0
00000F80
00001F00
00003E00
00007C00
0000FC00
0000F800
0001F000
0003E000
0007C000
000F8000
001F8000
001F0000
003E0000
007C0000
00F80000
01F00000
03F00000
03E00000
07C00000
0F800000
1F000000
3F000000
3E000000
7C000000
FFFFFFF8
FFFFFFF8
FFFFFFF8
FFFFFFF8
ENDCHAR
STARTCHAR bracketleft
ENCODING 91
SWIDTH 390 0
DWIDTH 19 0
BBX 10 43 4 -7
BITMAP
FFC0
FFC0
FFC0
FFC0
F000
F000
F000
F000
F000
F000
F000
F000
F000
F000
F000
F000
F000
F000
F000
F000
F000
F000
F000
F000
F000
F000
F000
F000
F000
F000
F000
F000
F000
F000
F000
F000
F000
F000
F000
FFC0
FFC0
FFC0
FFC0
ENDCHAR
STARTCHAR backslash
ENCODING 92
SWIDTH 336 0
DWIDTH 16 0
BBX 16 39 0 -4
BITMAP
F000
F800
7800
7800
7C00
3C00
3C00
3C00
1E00
1E00
1E00
1F00
0F00
0F00
0F80
0780
0780
0780
03C0
03C0
03C0
01E0
01E0
01E0
01F0
00F0
00F0
00F8
0078
0078
0078
003C
003C
003C
003E
001E
001E
001F
000F
ENDCHAR
STARTCHAR bracketright
ENCODING 93
SWIDTH 390 0
DWIDTH 19 0
BBX 10 43 5 -7
BITMAP
FFC0
FFC0
FFC0
FFC0
03C0
03C0
03C0
03C0
03C0
03C0
03C0
03C0
03C0
03C0
03C0
03C0
03C0
03C0
03C0
03C0
03C0
03C0
03C0
03C0
03C0
03C0
03C0
03C0
03C0
03C0
03C0
03C0
03C0
03C0
03C0
03C0
03C0
03C0
03C0
FFC0
FFC0
FFC0
FFC0
ENDCHAR
STARTCHAR asciicircum
ENCODING 94
SWIDTH 837 0
DWIDTH 40 0
BBX 30 13 5 22
BITMAP
000FC000
001FE000
003FF000
007FF800
00FCFC00
01F87E00
03F03F00
07E01F80
0FC00FC0
1F8007E0
3F0003F0
7C0000F8
F800007C
ENDCHAR
STARTCHAR underscore
ENCODING 95
SWIDTH 500 0
DWIDTH 24 0
BBX 24 4 0 -11
BITMAP
FFFFFF
FFFFFF
FFFFFF
FFFFFF
ENDCHAR
STARTCHAR grave
ENCODING 96
SWIDTH 500 0
DWIDTH 24 0
BBX 11 9 4 29
BITMAP
F800
7C00
3C00
1E00
0F00
0700
0780
03C0
01E0
ENDCHAR
STARTCHAR a
ENCODING 97
SWIDTH 612 0
DWIDTH 29 0
BBX 22 28 3 -1
BITMAP
01FE00
1FFF80
3FFFE0
3FFFF0
3C03F0
2000F8
000078
00003C
00003C
00003C
01FFFC
0FFFFC
1FFFFC
3FFFFC
7F003C
7C003C
F8003C
F0003C
F0007C
F0007C
F0007C
F800FC
F801FC
7E07FC
7FFFBC
3FFF3C
1FFE3C
03F000
ENDCHAR
STARTCHAR b
ENCODING 98
SWIDTH 634 0
DWIDTH 30 0
BBX 23 37 4 -1
BITMAP
F00000
F00000
F00000
F00000
F00000
F00000
F00000
F00000
F00000
F07F00
F1FFC0
F3FFE0
F7FFF0
FF83F0
FE00F8
FC007C
F8003C
F8003C
F8003E
F0001E
F0001E
F0001E
F0001E
F0001E
F0001E
F0001E
F0001E
F8003E
F8003C
F8003C
FC007C
FE00F8
FF83F0
F7FFF0
F3FFE0
F1FFC0
007E00
ENDCHAR
STARTCHAR c
ENCODING 99
SWIDTH 549 0
DWIDTH 26 0
BBX 21 28 3 -1
BITMAP
007F80
01FFF0
07FFF8
0FFFF8
1FC078
3F0008
3E0000
7C0000
780000
F80000
F00000
F00000
F00000
F00000
F00000
F00000
F00000
F00000
F80000
780000
7C0000
3E0000
3F0008
1FC078
0FFFF8
07FFF8
03FFF0
007F80
ENDCHAR
STARTCHAR d
ENCODING 100
SWIDTH 634 0
DWIDTH 30 0
BBX 23 37 3 -1
BITMAP
00001E
00001E
00001E
00001E
00001E
00001E
00001E
00001E
00001E
00FC1E
07FF1E
0FFF9E
1FFFDE
3F83FE
3E00FE
7C007E
78003E
78003E
F8003E
F0001E
F0001E
F0001E
F0001E
F0001E
F0001E
F0001E
F0001E
F8003E
78003E
78003E
7C007E
3E00FE
3F83FE
1FFFDE
0FFF9E
07FF1E
01FC00
ENDCHAR
STARTCHAR e
ENCODING 101
SWIDTH 615 0
DWIDTH 30 0
BBX 24 28 3 -1
BITMAP
007F00
03FFE0
07FFF0
0FFFF8
1F80FC
3E007C
3C003E
78001E
78000F
70000F
F0000F
FFFFFF
FFFFFF
FFFFFF
FFFFFF
F00000
F00000
F00000
F80000
780000
7C0000
3E0000
3F0002
1FC03E
0FFFFE
07FFFE
01FFFC
007FC0
ENDCHAR
STARTCHAR f
ENCODING 102
SWIDTH 352 0
DWIDTH 17 0
BBX 16 36 1 0
BITMAP
00FF
03FF
07FF
07FF
0F80
0F00
0F00
0F00
0F00
0F00
FFFE
FFFE
FFFE
FFFE
0F00
0F00
0F00
0F00
0F00
0F00
0F00
0F00
0F00
0F00
0F00
0F00
0F00
0F00
0F00
0F00
0F00
0F00
0F00
0F00
0F00
0F00
ENDCHAR
STARTCHAR g
ENCODING 103
SWIDTH 634 0
DWIDTH 30 0
BBX 23 37 3 -10
BITMAP
01FC00
07FF1E
0FFF9E
1FFFDE
3F83FE
3E00FE
7C007E
78003E
78003E
F8003E
F0001E
F0001E
F0001E
F0001E
F0001E
F0001E
F0001E
F0003E
78003E
78003E
7C007E
3E00FE
3F83FE
1FFFDE
0FFF9E
07FF1E
01FC1E
00001E
00003C
00003C
00007C
1000F8
1E03F8
1FFFF0
1FFFE0
0FFFC0
01FE00
ENDCHAR
STARTCHAR h
ENCODING 104
SWIDTH 633 0
DWIDTH 30 0
BBX 22 36 4 0
BITMAP
F00000
F00000
F00000
F00000
F00000
F00000
F00000
F00000
F00000
F07F00
F1FFC0
F3FFE0
F7FFF0
FF81F8
FE00F8
FC0078
F8007C
F8003C
F0003C
F0003C
F0003C
F0003C
F0003C
F0003C
F0003C
F0003C
F0003C
F0003C
F0003C
F0003C
F0003C
F0003C
F0003C
F0003C
F0003C
F0003C
ENDCHAR
STARTCHAR i
ENCODING 105
SWIDTH 277 0
DWIDTH 13 0
BBX 4 36 4 0
BITMAP
F0
F0
F0
F0
F0
00
00
00
00
00
F0
F0
F0
F0
F0
F0
F0
F0
F0
F0
F0
F0
F0
F0
F0
F0
F0
F0
F0
F0
F0
F0
F0
F0
F0
F0
ENDCHAR
STARTCHAR j
ENCODING 106
SWIDTH 277 0
DWIDTH 13 0
BBX 9 46 -1 -10
BITMAP
0780
0780
0780
0780
0780
0000
0000
0000
0000
0000
0780
0780
0780
0780
0780
0780
0780
0780
0780
0780
0780
0780
0780
0780
0780
0780
0780
0780
0780
0780
0780
0780
0780
0780
0780
0780
0780
0780
0780
0780
0F80
1F00
FF00
FE00
FE00
F800
ENDCHAR
STARTCHAR k
ENCODING 107
SWIDTH 579 0
DWIDTH 28 0
BBX 22 36 4 0
BITMAP
F00000
F00000
F00000
F00000
F00000
F00000
F00000
F00000
F00000
F00000
F001F8
F003F0
F007E0
F00FC0
F01F80
F03F00
F07E00
F0FC00
F3F000
F7E000
FFC000
FF8000
FF8000
FFC000
F7E000
F3F000
F1F800
F0FC00
F07E00
F03F00
F01F80
F00FC0
F007E0
F001F0
F000F8
F0007C
ENDCHAR
STARTCHAR l
ENCODING 108
SWIDTH 277 0
DWIDTH 13 0
BBX 4 36 4 0
BITMAP
F0
F0
F0
F0
F0
F0
F0
F0
F0
F0
F0
F0
F0
F0
F0
F0
F0
F0
F0
F0
F0
F0
F0
F0
F0
F0
F0
F0
F0
F0
F0
F0
F0
F0
F0
F0
ENDCHAR
STARTCHAR m
ENCODING 109
SWIDTH 974 0
DWIDTH 47 0
BBX 38 27 4 0
BITMAP
007E003F80
F1FF80FFC0
F3FFC1FFE0
F7FFE3FFF0
FF83F7C1F8
FE01F700F8
FC00FE0078
F800FC007C
F8007C003C
F00078003C
F00078003C
F00078003C
F00078003C
F00078003C
F00078003C
F00078003C
F00078003C
F00078003C
F00078003C
F00078003C
F00078003C
F00078003C
F00078003C
F00078003C
F00078003C
F00078003C
F00078003C
ENDCHAR
STARTCHAR n
ENCODING 110
SWIDTH 633 0
DWIDTH 30 0
BBX 22 27 4 0
BITMAP
007F00
F1FFC0
F3FFE0
F7FFF0
FF81F8
FE00F8
FC0078
F8007C
F8003C
F0003C
F0003C
F0003C
F0003C
F0003C
F0003C
F0003C
F0003C
F0003C
F0003C
F0003C
F0003C
F0003C
F0003C
F0003C
F0003C
F0003C
F0003C
ENDCHAR
STARTCHAR o
ENCODING 111
SWIDTH 611 0
DWIDTH 29 0
BBX 24 28 3 -1
BITMAP
00FF00
03FFC0
0FFFF0
1FFFF8
1F81F8
3E007C
7C003E
7C003E
78001E
F8001F
F0000F
F0000F
F0000F
F0000F
F0000F
F0000F
F0000F
F0000F
F8001F
78001E
7C003E
7C003E
3E007C
1F81F8
1FFFF8
0FFFF0
03FFC0
00FF00
ENDCHAR
STARTCHAR p
ENCODING 112
SWIDTH 634 0
DWIDTH 30 0
BBX 23 37 4 -10
BITMAP
007F00
F1FFC0
F3FFE0
F7FFF0
FF83F0
FE00F8
FC007C
F8003C
F8003C
F8003E
F0001E
F0001E
F0001E
F0001E
F0001E
F0001E
F0001E
F0001E
F8003E
F8003C
F8003C
FC007C
FE00F8
FF83F0
F7FFF0
F3FFE0
F1FFC0
F07E00
F00000
F00000
F00000
F00000
F00000
F00000
F00000
F00000
F00000
ENDCHAR
STARTCHAR q
ENCODING 113
SWIDTH 634 0
DWIDTH 30 0
BBX 23 37 3 -10
BITMAP
00FC00
07FF1E
0FFF9E
1FFFDE
3F83FE
3E00FE
7C007E
78003E
78003E
F8003E
F0001E
F0001E
F0001E
F0001E
F0001E
F0001E
F0001E
F0001E
F8003E
78003E
78003E
7C007E
3E00FE
3F83FE
1FFFDE
0FFF9E
07FF1E
01FC1E
00001E
00001E
00001E
00001E
00001E
00001E
00001E
00001E
00001E
ENDCHAR
STARTCHAR r
ENCODING 114
SWIDTH 411 0
DWIDTH 20 0
BBX 15 27 4 0
BITMAP
007E
F1FE
F3FE
F7FE
FF80
FE00
FC00
F800
F800
F000
F000
F000
F000
F000
F000
F000
F000
F000
F000
F000
F000
F000
F000
F000
F000
F000
F000
ENDCHAR
STARTCHAR s
ENCODING 115
SWIDTH 520 0
DWIDTH 25 0
BBX 20 28 3 -1
BITMAP
03FE00
0FFFC0
3FFFE0
7FFFE0
7E01E0
F80020
F00000
F00000
F00000
F00000
F80000
7F0000
7FF000
3FFE00
0FFF80
01FFC0
001FE0
0003F0
0001F0
0000F0
0000F0
0000F0
8001F0
F807E0
FFFFE0
FFFFC0
7FFF00
07FC00
ENDCHAR
STARTCHAR t
ENCODING 116
SWIDTH 392 0
DWIDTH 19 0
BBX 16 33 1 0
BITMAP
1E00
1E00
1E00
1E00
1E00
1E00
1E00
FFFF
FFFF
FFFF
FFFF
1E00
1E00
1E00
1E00
1E00
1E00
1E00
1E00
1E00
1E00
1E00
1E00
1E00
1E00
1E00
1E00
1E00
1F00
0FFF
0FFF
07FF
01FF
ENDCHAR
STARTCHAR u
ENCODING 117
SWIDTH 633 0
DWIDTH 30 0
BBX 22 27 4 -1
BITMAP
F0003C
F0003C
F0003C
F0003C
F0003C
F0003C
F0003C
F0003C
F0003C
F0003C
F0003C
F0003C
F0003C
F0003C
F0003C
F0003C
F0003C
F0003C
F0007C
F8007C
7800FC
7C01FC
7E07FC
3FFFBC
1FFF3C
0FFE3C
03F800
ENDCHAR
STARTCHAR v
ENCODING 118
SWIDTH 591 0
DWIDTH 28 0
BBX 26 26 1 0
BITMAP
F00003C0
78000780
78000780
7C000F80
3C000F00
3C000F00
3E001F00
1E001E00
1F003E00
0F003C00
0F003C00
0F807C00
07807800
0780F800
03C0F000
03C0F000
03E1F000
01E1E000
01E1E000
00F3E000
00F3C000
00FFC000
007F8000
007F8000
007F8000
003F0000
ENDCHAR
STARTCHAR w
ENCODING 119
SWIDTH 817 0
DWIDTH 39 0
BBX 35 26 2 0
BITMAP
F003F801E0
F803F803E0
7803F803C0
7803F803C0
7807FC03C0
7C07BC07C0
3C07BC0780
3C07BC0780
3C0F9E0780
1E0F1E0F80
1E0F1E0F00
1E0F1E0F00
1E1E0F0F00
0F1E0F1E00
0F1E0F1E00
0F1E0F1E00
0F3C079E00
07BC07BC00
07BC07BC00
07FC07FC00
07F803FC00
03F803F800
03F803F800
03F803F800
03F001F800
01F001F000
ENDCHAR
STARTCHAR x
ENCODING 120
SWIDTH 591 0
DWIDTH 28 0
BBX 25 26 1 0
BITMAP
7C001F00
3E003E00
1F007C00
0F007C00
0F80F800
07C1F000
03E3E000
03E3E000
01F7C000
00FF8000
007F0000
007F0000
003E0000
007F0000
00FF0000
00FF8000
01F7C000
03E3E000
07C3E000
07C1F000
0F80F800
1F007C00
1F007C00
3E003E00
7C001F00
F8000F80
ENDCHAR
STARTCHAR y
ENCODING 121
SWIDTH 591 0
DWIDTH 28 0
BBX 26 36 1 -10
BITMAP
F80007C0
78000780
78000780
7C000F80
3C000F00
3E001F00
1E001E00
1E003E00
0F003C00
0F003C00
0F807C00
07807800
0780F800
03C0F000
03C1F000
03E1E000
01E1E000
01F3E000
00F3C000
00F7C000
00FF8000
007F8000
007F0000
003F0000
003F0000
001E0000
003E0000
003C0000
007C0000
00780000
00F80000
01F80000
3FF00000
3FE00000
3FC00000
3F800000
ENDCHAR
STARTCHAR z
ENCODING 122
SWIDTH 524 0
DWIDTH 25 0
BBX 21 26 2 0
BITMAP
7FFFF8
7FFFF8
7FFFF8
7FFFF8
0001F0
0003F0
0007E0
0007C0
000F80
001F00
003E00
007C00
00FC00
01F800
01F000
03E000
07C000
0F8000
1F8000
3F0000
7E0000
7C0000
FFFFF8
FFFFF8
FFFFF8
FFFFF8
ENDCHAR
STARTCHAR braceleft
ENCODING 123
SWIDTH 636 0
DWIDTH 31 0
BBX 18 44 6 -8
BITMAP
000FC0
007FC0
00FFC0
00FFC0
01F800
01F000
01E000
01E000
01E000
01E000
01E000
01E000
01E000
01E000
01E000
01E000
01E000
01E000
03E000
07C000
FF8000
FF0000
FF0000
FF8000
0FC000
03E000
03E000
01E000
01E000
01E000
01E000
01E000
01E000
01E000
01E000
01E000
01E000
01E000
01F000
01F800
00FFC0
00FFC0
007FC0
001FC0
ENDCHAR
STARTCHAR bar
ENCODING 124
SWIDTH 336 0
DWIDTH 16 0
BBX 4 48 6 -12
BITMAP
F0
F0
F0
F0
F0
F0
F0
F0
F0
F0
F0
F0
F0
F0
F0
F0
F0
F0
F0
F0
F0
F0
F0
F0
F0
F0
F0
F0
F0
F0
F0
F0
F0
F0
F0
F0
F0
F0
F0
F0
F0
F0
F0
F0
F0
F0
F0
F0
ENDCHAR
STARTCHAR braceright
ENCODING 125
SWIDTH 636 0
DWIDTH 31 0
BBX 18 44 6 -8
BITMAP
FC0000
FF8000
FFC000
FFC000
07E000
03E000
01E000
01E000
01E000
01E000
01E000
01E000
01E000
01E000
01E000
01E000
01E000
01E000
01F000
00F800
007FC0
003FC0
003FC0
007FC0
00F800
01F000
01E000
01E000
01E000
01E000
01E000
01E000
01E000
01E000
01E000
01E000
01E000
01E000
03E000
07E000
FFC000
FFC000
FF8000
FE0000
ENDCHAR
STARTCHAR asciitilde
ENCODING 126
SWIDTH 837 0
DWIDTH 40 0
BBX 30 7 5 12
BITMAP
07F00004
1FFE001C
7FFFE07C
FFFFFFFC
F81FFFF8
E001FFE0
C0003F80
ENDCHAR
STARTCHAR nonbreakingspace
ENCODING 160
SWIDTH 636 0
DWIDTH 31 0
BBX 1 1 0 0
BITMAP
00
ENDCHAR
STARTCHAR exclamdown
ENCODING 161
SWIDTH 400 0
DWIDTH 19 0
BBX 5 35 7 0
BITMAP
F8
F8
F8
F8
F8
F8
00
00
00
00
00
F8
F8
F8
F8
F8
F8
F8
F8
F8
F8
F8
F8
F8
F8
F8
F8
F8
F8
F8
F8
F8
F8
F8
F8
ENDCHAR
STARTCHAR cent
ENCODING 162
SWIDTH 636 0
DWIDTH 31 0
BBX 21 42 4 -8
BITMAP
000C00
000C00
000C00
000C00
000C00
000C00
000C00
007F80
01FFF0
07FFF8
0FFFF8
1FCC78
3F0C08
3E0C00
7C0C00
780C00
F80C00
F00C00
F00C00
F00C00
F00C00
F00C00
F00C00
F00C00
F00C00
F80C00
780C00
7C0C00
3E0C00
3F0C08
1FCC78
0FFFF8
07FFF8
03FFF0
007F80
000C00
000C00
000C00
000C00
000C00
000C00
000C00
ENDCHAR
STARTCHAR sterling
ENCODING 163
SWIDTH 636 0
DWIDTH 31 0
BBX 23 36 3 0
BITMAP
000FF8
003FFE
007FFE
00FFFE
01F806
01F000
01E000
03E000
03C000
03C000
03C000
03C000
03C000
03C000
03C000
03C000
03C000
03C000
7FFFE0
7FFFE0
7FFFE0
7FFFE0
03C000
03C000
03C000
03C000
03C000
03C000
03C000
03C000
03C000
03C000
FFFFFE
FFFFFE
FFFFFE
FFFFFE
ENDCHAR
STARTCHAR currency
ENCODING 164
SWIDTH 636 0
DWIDTH 31 0
BBX 26 26 2 2
BITMAP
20000100
70000380
F80007C0
7C3F0F80
3EFFDF00
1FFFFE00
0FFFFC00
07E1F800
0F807C00
0F003C00
1F003E00
1E001E00
1E001E00
1E001E00
1E001E00
1F003E00
0F003C00
0F807C00
07E1F800
0FFFFC00
1FFFFE00
3EFFDF00
7C3F0F80
F80007C0
70000380
20000100
ENDCHAR
STARTCHAR yen
ENCODING 165
SWIDTH 636 0
DWIDTH 31 0
BBX 26 35 2 0
BITMAP
F80007C0
78000780
7C000F80
3C000F00
3E001F00
1E001E00
1F003E00
0F807C00
0F807C00
07C0F800
03C0F000
03E1F000
01E1E000
01F3E000
7FF3FF80
7FFFFF80
7FFFFF80
007F8000
003F0000
003F0000
001E0000
001E0000
7FFFFF80
7FFFFF80
7FFFFF80
001E0000
001E0000
001E0000
001E0000
001E0000
001E0000
001E0000
001E0000
001E0000
001E0000
ENDCHAR
STARTCHAR brokenbar
ENCODING 166
SWIDTH 336 0
DWIDTH 16 0
BBX 4 42 6 -8
BITMAP
F0
F0
F0
F0
F0
F0
F0
F0
F0
F0
F0
F0
F0
F0
F0
F0
F0
F0
00
00
00
00
00
00
F0
F0
F0
F0
F0
F0
F0
F0
F0
F0
F0
F0
F0
F0
F0
F0
F0
F0
ENDCHAR
STARTCHAR section
ENCODING 167
SWIDTH 500 0
DWIDTH 24 0
BBX 20 41 2 -5
BITMAP
01FF00
07FFC0
0FFFC0
1F03C0
3E0040
3C0000
3C0000
3C0000
3E0000
3F0000
1F8000
0FC000
0FF000
3FFC00
3CFE00
783F80
F01FC0
F007E0
F003E0
F001F0
F800F0
F800F0
7E00F0
3F00F0
1F81E0
0FE3E0
07FFC0
01FF80
007F00
003F80
000F80
0007C0
0007C0
0003C0
0003C0
0003C0
200780
3C0F80
3FFF00
3FFE00
0FF800
ENDCHAR
STARTCHAR dieresis
ENCODING 168
SWIDTH 500 0
DWIDTH 24 0
BBX 14 5 5 31
BITMAP
F87C
F87C
F87C
F87C
F87C
ENDCHAR
STARTCHAR copyright
ENCODING 169
SWIDTH 1000 0
DWIDTH 48 0
BBX 35 35 7 0
BITMAP
0007FC0000
003FFF8000
00FC07E000
01E000F000
0380003800
0700001C00
0E01FE0E00
1C0FFF8700
381FFF8380
303F018180
707C0001C0
60F80000C0
60F00000C0
E1F00000E0
C1E0000060
C1E0000060
C1E0000060
C1E0000060
C1E0000060
C1E0000060
C1E0000060
C0F00000E0
60F00000C0
60F80000C0
707C0001C0
303F018180
381FFF8380
1C0FFF8700
0E03FE0E00
0700001C00
0380003800
01E000F000
00FC03C000
003FFF8000
0007FC0000
ENDCHAR
STARTCHAR ordfeminine
ENCODING 170
SWIDTH 471 0
DWIDTH 23 0
BBX 17 24 3 12
BITMAP
07F000
3FFC00
7FFE00
701F00
400F00
000780
000780
07FF80
3FFF80
7FFF80
7C0780
F00780
F00780
F00F80
F00F80
FC3F80
7FF780
3FE780
0FC780
000000
000000
FFFF80
FFFF80
FFFF80
ENDCHAR
STARTCHAR guillemotleft
ENCODING 171
SWIDTH 611 0
DWIDTH 29 0
BBX 21 22 4 3
BITMAP
002008
006018
00E038
01E078
03E0F8
0781E0
0F03C0
1E0780
3C0F00
781E00
F03C00
F03C00
781E00
3C0F00
1E0780
0F03C0
0781E0
03E0F8
01E078
00E038
006018
002008
ENDCHAR
STARTCHAR logicalnot
ENCODING 172
SWIDTH 837 0
DWIDTH 40 0
BBX 30 13 5 7
BITMAP
FFFFFFFC
FFFFFFFC
FFFFFFFC
FFFFFFFC
0000003C
0000003C
0000003C
0000003C
0000003C
0000003C
0000003C
0000003C
0000003C
ENDCHAR
STARTCHAR sfthyphen
ENCODING 173
SWIDTH 360 0
DWIDTH 17 0
BBX 13 4 2 11
BITMAP
FFF8
FFF8
FFF8
FFF8
ENDCHAR
STARTCHAR registered
ENCODING 174
SWIDTH 1000 0
DWIDTH 48 0
BBX 35 35 7 0
BITMAP
0007FC0000
003FFF8000
00FC07E000
01E000F000
0380003800
0700001C00
0E3FFC0E00
1C3FFF0700
383C0F8380
303C07C180
703C03C1C0
603C03C0C0
603C03C0C0
E03C03C0E0
C03C0F8060
C03FFF0060
C03FF80060
C03C7C0060
C03C3E0060
C03C1E0060
C03C0F0060
C03C0F00E0
603C0780C0
603C0780C0
703C07C1C0
303C03C180
383C03E380
1C3C01E700
0E3C01FE00
0700001C00
0380003800
01E000F000
00FC03C000
003FFF8000
0007FC0000
ENDCHAR
STARTCHAR macron
ENCODING 175
SWIDTH 500 0
DWIDTH 24 0
BBX 14 4 5 32
BITMAP
FFFC
FFFC
FFFC
FFFC
ENDCHAR
STARTCHAR degree
ENCODING 176
SWIDTH 500 0
DWIDTH 24 0
BBX 15 15 5 21
BITMAP
07C0
1FF0
3FF8
783C
701C
E00E
E00E
E00E
E00E
E00E
701C
783C
3FF8
1FF0
07C0
ENDCHAR
STARTCHAR plusminus
ENCODING 177
SWIDTH 837 0
DWIDTH 40 0
BBX 30 30 5 0
BITMAP
00078000
00078000
00078000
00078000
00078000
00078000
00078000
00078000
00078000
FFFFFFFC
FFFFFFFC
FFFFFFFC
FFFFFFFC
00078000
00078000
00078000
00078000
00078000
00078000
00078000
00078000
00078000
00000000
00000000
00000000
00000000
FFFFFFFC
FFFFFFFC
FFFFFFFC
FFFFFFFC
ENDCHAR
STARTCHAR twosuperior
ENCODING 178
SWIDTH 400 0
DWIDTH 19 0
BBX 14 20 2 16
BITMAP
3FC0
FFF0
FFF8
C07C
003C
001C
001C
0018
0038
0070
00F0
01E0
03C0
0F80
1F00
3E00
7800
FFFC
FFFC
FFFC
ENDCHAR
STARTCHAR threesuperior
ENCODING 179
SWIDTH 400 0
DWIDTH 19 0
BBX 15 20 2 16
BITMAP
1FC0
7FF0
7FF8
607C
001C
001C
001C
0078
0FF0
0FE0
0FF8
003C
001E
000E
000E
001E
C03C
FFFC
FFF8
3FC0
ENDCHAR
STARTCHAR acute
ENCODING 180
SWIDTH 500 0
DWIDTH 24 0
BBX 11 9 9 29
BITMAP
03E0
07C0
0780
0F00
1E00
3C00
3C00
7800
F000
ENDCHAR
STARTCHAR mu
ENCODING 181
SWIDTH 636 0
DWIDTH 31 0
BBX 25 36 4 -10
BITMAP
F0003C00
F0003C00
F0003C00
F0003C00
F0003C00
F0003C00
F0003C00
F0003C00
F0003C00
F0003C00
F0003C00
F0003C00
F0003C00
F0003C00
F0003C00
F0003C00
F0003C00
F0003C00
F0003C00
F8007C00
F8007C00
FC00FC00
FF03FE80
FFFFFF80
F7FF9F80
F3FF1F80
F0FC0F00
F0000000
F0000000
F0000000
F0000000
F0000000
F0000000
F0000000
F0000000
F0000000
ENDCHAR
STARTCHAR paragraph
ENCODING 182
SWIDTH 636 0
DWIDTH 31 0
BBX 22 40 4 -5
BITMAP
00FFFC
07FFFC
0FFFFC
1FFE1C
3FFE1C
7FFE1C
7FFE1C
FFFE1C
FFFE1C
FFFE1C
FFFE1C
FFFE1C
FFFE1C
7FFE1C
7FFE1C
3FFE1C
1FFE1C
0FFE1C
07FE1C
00FE1C
000E1C
000E1C
000E1C
000E1C
000E1C
000E1C
000E1C
000E1C
000E1C
000E1C
000E1C
000E1C
000E1C
000E1C
000E1C
000E1C
000E1C
000E1C
000E1C
000E1C
ENDCHAR
STARTCHAR periodcentered
ENCODING 183
SWIDTH 317 0
DWIDTH 15 0
BBX 4 6 5 14
BITMAP
F0
F0
F0
F0
F0
F0
ENDCHAR
STARTCHAR cedilla
ENCODING 184
SWIDTH 500 0
DWIDTH 24 0
BBX 10 9 7 -9
BITMAP
0700
0300
0380
01C0
01C0
83C0
FFC0
FF80
FE00
ENDCHAR
STARTCHAR onesuperior
ENCODING 185
SWIDTH 400 0
DWIDTH 19 0
BBX 13 20 4 16
BITMAP
1F00
FF00
FF00
E700
0700
0700
0700
0700
0700
0700
0700
0700
0700
0700
0700
0700
0700
FFF8
FFF8
FFF8
ENDCHAR
STARTCHAR ordmasculine
ENCODING 186
SWIDTH 471 0
DWIDTH 23 0
BBX 18 24 2 12
BITMAP
03F000
0FFC00
3FFF00
3E1F00
7C0F80
780780
F003C0
F003C0
F003C0
F003C0
F003C0
F003C0
F003C0
780780
7C0F80
3E1F00
3FFF00
0FFC00
03F000
000000
000000
7FFF80
7FFF80
7FFF80
ENDCHAR
STARTCHAR guillemotright
ENCODING 187
SWIDTH 611 0
DWIDTH 29 0
BBX 21 22 5 3
BITMAP
802000
C03000
E03800
F03C00
F83E00
3C0F00
1E0780
0F03C0
0781E0
03C0F0
01E078
01E078
03C0F0
0781E0
0F03C0
1E0780
3C0F00
F83E00
F03C00
E03800
C03000
802000
ENDCHAR
STARTCHAR onequarter
ENCODING 188
SWIDTH 969 0
DWIDTH 47 0
BBX 40 37 4 -1
BITMAP
1F00000F00
FF00000E00
FF00001E00
E700003C00
0700003800
0700007800
0700007000
070000E000
070001E000
070001C000
070003C000
0700078000
0700070000
07000F0000
07000E0000
07001E0000
07003C0078
FFF83800F8
FFF87801F8
FFF87001F8
0000F003B8
0001E00738
0001C00638
0003C00E38
0003801C38
0007803838
000F003038
000E007038
001E00E038
001C00FFFF
003800FFFF
007800FFFF
0070000038
00F0000038
01E0000038
01C0000038
03C0000000
ENDCHAR
STARTCHAR onehalf
ENCODING 189
SWIDTH 969 0
DWIDTH 47 0
BBX 39 37 4 -1
BITMAP
1F00000F00
FF00000E00
FF00001E00
E700003C00
0700003800
0700007800
0700007000
070000E000
070001E000
070001C000
070003C000
0700078000
0700070000
07000F0000
07000E0000
07001E0000
07003C1FE0
FFF8387FF8
FFF8787FFC
FFF870603E
0000F0001E
0001E0000E
0001C0000E
0003C0000C
000380001C
0007800038
000F000078
000E0000F0
001E0001E0
001C0007C0
0038000F80
0078001F00
0070003C00
00F0007FFE
01E0007FFE
01C0007FFE
03C0000000
ENDCHAR
STARTCHAR threequarters
ENCODING 190
SWIDTH 969 0
DWIDTH 47 0
BBX 42 37 2 -1
BITMAP
1FC00003C000
7FF000038000
7FF800078000
607C000F0000
001C000E0000
001C001E0000
001C001C0000
007800380000
0FF000780000
0FE000700000
0FF800F00000
003C01E00000
001E01C00000
000E03C00000
000E03800000
001E07800000
C03C0F001E00
FFFC0E003E00
FFF81E007E00
3FC01C007E00
00003C00EE00
00007801CE00
000070018E00
0000F0038E00
0000E0070E00
0001E00E0E00
0003C00C0E00
0003801C0E00
000780380E00
0007003FFFC0
000E003FFFC0
001E003FFFC0
001C00000E00
003C00000E00
007800000E00
007000000E00
00F000000000
ENDCHAR
STARTCHAR questiondown
ENCODING 191
SWIDTH 530 0
DWIDTH 25 0
BBX 19 36 3 -1
BITMAP
007800
007800
007800
007800
007800
007800
000000
000000
000000
007800
007800
007800
007800
007800
007800
00F800
00F800
01F000
07F000
0FE000
1FC000
3F8000
3F0000
7E0000
780000
F80000
F00000
F00000
F00000
F80020
F800E0
7E07E0
3FFFE0
3FFFC0
0FFF00
03FC00
ENDCHAR
STARTCHAR Agrave
ENCODING 192
SWIDTH 684 0
DWIDTH 33 0
BBX 32 45 0 0
BITMAP
003E0000
001F0000
000F0000
00078000
0003C000
0001E000
00000000
00000000
00000000
00000000
0007E000
0007E000
000FF000
000FF000
000FF000
001FF800
001E7800
003E7C00
003C3C00
003C3C00
007C3E00
00781E00
00781E00
00F00F00
00F00F00
01F00F80
01E00780
01E00780
03E007C0
03C003C0
03C003C0
078001E0
07FFFFE0
0FFFFFF0
0FFFFFF0
0FFFFFF0
1F0000F8
1E000078
3E00007C
3C00003C
3C00003C
7C00003E
7800001E
7800001E
F000000F
ENDCHAR
STARTCHAR Aacute
ENCODING 193
SWIDTH 684 0
DWIDTH 33 0
BBX 32 45 0 0
BITMAP
00007800
0000F800
0000F000
0001E000
0003C000
00078000
00000000
00000000
00000000
00000000
0007E000
0007E000
000FF000
000FF000
000FF000
001FF800
001E7800
003E7C00
003C3C00
003C3C00
007C3E00
00781E00
00781E00
00F00F00
00F00F00
01F00F80
01E00780
01E00780
03E007C0
03C003C0
03C003C0
078001E0
07FFFFE0
0FFFFFF0
0FFFFFF0
0FFFFFF0
1F0000F8
1E000078
3E00007C
3C00003C
3C00003C
7C00003E
7800001E
7800001E
F000000F
ENDCHAR
STARTCHAR Acircumflex
ENCODING 194
SWIDTH 684 0
DWIDTH 33 0
BBX 32 45 0 0
BITMAP
0007E000
0007E000
000FF000
001E7800
003C3C00
00781E00
00000000
00000000
00000000
00000000
0007E000
0007E000
000FF000
000FF000
000FF000
001FF800
001E7800
003E7C00
003C3C00
003C3C00
007C3E00
00781E00
00781E00
00F00F00
00F00F00
01F00F80
01E00780
01E00780
03E007C0
03C003C0
03C003C0
078001E0
07FFFFE0
0FFFFFF0
0FFFFFF0
0FFFFFF0
1F0000F8
1E000078
3E00007C
3C00003C
3C00003C
7C00003E
7800001E
7800001E
F000000F
ENDCHAR
STARTCHAR Atilde
ENCODING 195
SWIDTH 684 0
DWIDTH 33 0
BBX 32 44 0 0
BITMAP
003E0E00
007F8E00
00FFFC00
00E3FC00
00E0F800
00000000
00000000
00000000
00000000
0007E000
0007E000
000FF000
000FF000
000FF000
001FF800
001E7800
003E7C00
003C3C00
003C3C00
007C3E00
00781E00
00781E00
00F00F00
00F00F00
01F00F80
01E00780
01E00780
03E007C0
03C003C0
03C003C0
078001E0
07FFFFE0
0FFFFFF0
0FFFFFF0
0FFFFFF0
1F0000F8
1E000078
3E00007C
3C00003C
3C00003C
7C00003E
7800001E
7800001E
F000000F
ENDCHAR
STARTCHAR Adieresis
ENCODING 196
SWIDTH 684 0
DWIDTH 33 0
BBX 32 44 0 0
BITMAP
007C3E00
007C3E00
007C3E00
007C3E00
007C3E00
00000000
00000000
00000000
00000000
0007E000
0007E000
000FF000
000FF000
000FF000
001FF800
001E7800
003E7C00
003C3C00
003C3C00
007C3E00
00781E00
00781E00
00F00F00
00F00F00
01F00F80
01E00780
01E00780
03E007C0
03C003C0
03C003C0
078001E0
07FFFFE0
0FFFFFF0
0FFFFFF0
0FFFFFF0
1F0000F8
1E000078
3E00007C
3C00003C
3C00003C
7C00003E
7800001E
7800001E
F000000F
ENDCHAR
STARTCHAR Aring
ENCODING 197
SWIDTH 684 0
DWIDTH 33 0
BBX 32 45 0 0
BITMAP
0003C000
000FF000
001FF800
001C7800
003C3C00
00381C00
00381C00
00381C00
003C3C00
001C3800
001FF800
000FE000
0007E000
000FF000
000FF000
000FF000
001E7800
001E7800
003E7C00
003C3C00
003C3C00
007C3E00
00781E00
00F81F00
00F00F00
00F00F00
01F00F80
01E00780
03E007C0
03C003C0
03C003C0
07C003E0
07FFFFE0
07FFFFE0
0FFFFFF0
0FFFFFF0
1F0000F8
1E000078
1E000078
3C00003C
3C00003C
7C00003E
7800001E
7800001E
F800001F
ENDCHAR
STARTCHAR AE
ENCODING 198
SWIDTH 974 0
DWIDTH 47 0
BBX 44 35 0 0
BITMAP
0003FFFFFFF0
0003FFFFFFF0
0003FFFFFFF0
0007FFFFFFF0
000787800000
000F87800000
000F07800000
000F07800000
001E07800000
001E07800000
003E07800000
003C07800000
007C07800000
007807800000
007807FFFFE0
00F807FFFFE0
00F007FFFFE0
01F007FFFFE0
01E007800000
03E007800000
03C007800000
03C007800000
07FFFF800000
07FFFF800000
0FFFFF800000
0FFFFF800000
0F0007800000
1F0007800000
1E0007800000
3E0007800000
3C0007800000
7C0007FFFFF0
780007FFFFF0
780007FFFFF0
F80007FFFFF0
ENDCHAR
STARTCHAR Ccedilla
ENCODING 199
SWIDTH 698 0
DWIDTH 34 0
BBX 28 45 3 -9
BITMAP
000FFC00
007FFF80
01FFFFE0
03FFFFF0
07F807F0
0FC000F0
1F800030
1F000010
3E000000
3C000000
78000000
78000000
78000000
F8000000
F0000000
F0000000
F0000000
F0000000
F0000000
F0000000
F0000000
F0000000
F0000000
F0000000
78000000
78000000
78000000
3C000000
3E000000
1F000010
1F800030
0FC000F0
07F807F0
03FFFFF0
01FFFFE0
007FFF80
000FFC00
00006000
00007000
00003800
00003800
00107800
001FF800
001FF000
001FC000
ENDCHAR
STARTCHAR Egrave
ENCODING 200
SWIDTH 631 0
DWIDTH 30 0
BBX 23 45 5 0
BITMAP
07C000
03E000
01E000
00F000
007800
003C00
000000
000000
000000
000000
FFFFFE
FFFFFE
FFFFFE
FFFFFE
F00000
F00000
F00000
F00000
F00000
F00000
F00000
F00000
F00000
F00000
FFFFFC
FFFFFC
FFFFFC
FFFFFC
F00000
F00000
F00000
F00000
F00000
F00000
F00000
F00000
F00000
F00000
F00000
F00000
F00000
FFFFFE
FFFFFE
FFFFFE
FFFFFE
ENDCHAR
STARTCHAR Eacute
ENCODING 201
SWIDTH 631 0
DWIDTH 30 0
BBX 23 45 5 0
BITMAP
000F00
001F00
001E00
003C00
007800
00F000
000000
000000
000000
000000
FFFFFE
FFFFFE
FFFFFE
FFFFFE
F00000
F00000
F00000
F00000
F00000
F00000
F00000
F00000
F00000
F00000
FFFFFC
FFFFFC
FFFFFC
FFFFFC
F00000
F00000
F00000
F00000
F00000
F00000
F00000
F00000
F00000
F00000
F00000
F00000
F00000
FFFFFE
FFFFFE
FFFFFE
FFFFFE
ENDCHAR
STARTCHAR Ecircumflex
ENCODING 202
SWIDTH 631 0
DWIDTH 30 0
BBX 23 45 5 0
BITMAP
00FC00
00FC00
01FE00
03CF00
078780
0F03C0
000000
000000
000000
000000
FFFFFE
FFFFFE
FFFFFE
FFFFFE
F00000
F00000
F00000
F00000
F00000
F00000
F00000
F00000
F00000
F00000
FFFFFC
FFFFFC
FFFFFC
FFFFFC
F00000
F00000
F00000
F00000
F00000
F00000
F00000
F00000
F00000
F00000
F00000
F00000
F00000
FFFFFE
FFFFFE
FFFFFE
FFFFFE
ENDCHAR
STARTCHAR Edieresis
ENCODING 203
SWIDTH 631 0
DWIDTH 30 0
BBX 23 44 5 0
BITMAP
0F87C0
0F87C0
0F87C0
0F87C0
0F87C0
000000
000000
000000
000000
FFFFFE
FFFFFE
FFFFFE
FFFFFE
F00000
F00000
F00000
F00000
F00000
F00000
F00000
F00000
F00000
F00000
FFFFFC
FFFFFC
FFFFFC
FFFFFC
F00000
F00000
F00000
F00000
F00000
F00000
F00000
F00000
F00000
F00000
F00000
F00000
F00000
FFFFFE
FFFFFE
FFFFFE
FFFFFE
ENDCHAR
STARTCHAR Igrave
ENCODING 204
SWIDTH 294 0
DWIDTH 14 0
BBX 9 45 1 0
BITMAP
F800
7C00
3C00
1E00
0F00
0780
0000
0000
0000
0000
0F00
0F00
0F00
0F00
0F00
0F00
0F00
0F00
0F00
0F00
0F00
0F00
0F00
0F00
0F00
0F00
0F00
0F00
0F00
0F00
0F00
0F00
0F00
0F00
0F00
0F00
0F00
0F00
0F00
0F00
0F00
0F00
0F00
0F00
0F00
ENDCHAR
STARTCHAR Iacute
ENCODING 205
SWIDTH 294 0
DWIDTH 14 0
BBX 8 45 4 0
BITMAP
0F
1F
1E
3C
78
F0
00
00
00
00
78
78
78
78
78
78
78
78
78
78
78
78
78
78
78
78
78
78
78
78
78
78
78
78
78
78
78
78
78
78
78
78
78
78
78
ENDCHAR
STARTCHAR Icircumflex
ENCODING 206
SWIDTH 294 0
DWIDTH 14 0
BBX 14 45 0 0
BITMAP
0FC0
0FC0
1FE0
3CF0
7878
F03C
0000
0000
0000
0000
0780
0780
0780
0780
0780
0780
0780
0780
0780
0780
0780
0780
0780
0780
0780
0780
0780
0780
0780
0780
0780
0780
0780
0780
0780
0780
0780
0780
0780
0780
0780
0780
0780
0780
0780
ENDCHAR
STARTCHAR Idieresis
ENCODING 207
SWIDTH 294 0
DWIDTH 14 0
BBX 14 44 0 0
BITMAP
F87C
F87C
F87C
F87C
F87C
0000
0000
0000
0000
0780
0780
0780
0780
0780
0780
0780
0780
0780
0780
0780
0780
0780
0780
0780
0780
0780
0780
0780
0780
0780
0780
0780
0780
0780
0780
0780
0780
0780
0780
0780
0780
0780
0780
0780
ENDCHAR
STARTCHAR Eth
ENCODING 208
SWIDTH 774 0
DWIDTH 37 0
BBX 34 35 0 0
BITMAP
07FFF00000
07FFFF0000
07FFFFE000
07FFFFF000
07800FF800
078001FC00
0780007E00
0780001F00
0780001F00
0780000F80
0780000780
0780000780
07800007C0
07800003C0
07800003C0
FFFF8003C0
FFFF8003C0
FFFF8003C0
FFFF8003C0
07800003C0
07800003C0
07800003C0
07800007C0
0780000780
0780000780
0780000F80
0780001F00
0780001F00
0780007E00
078000FC00
07800FF800
07FFFFF000
07FFFFE000
07FFFF0000
07FFF00000
ENDCHAR
STARTCHAR Ntilde
ENCODING 209
SWIDTH 748 0
DWIDTH 36 0
BBX 26 44 5 0
BITMAP
01F07000
03FC7000
07FFE000
071FE000
0707C000
00000000
00000000
00000000
00000000
FC0003C0
FE0003C0
FE0003C0
FF0003C0
FF0003C0
FF8003C0
F78003C0
F7C003C0
F3C003C0
F3E003C0
F1F003C0
F1F003C0
F0F803C0
F07803C0
F07C03C0
F03C03C0
F03E03C0
F01E03C0
F01F03C0
F00F03C0
F00F83C0
F00783C0
F007C3C0
F003C3C0
F003E3C0
F001F3C0
F000F3C0
F000FBC0
F0007BC0
F0007FC0
F0003FC0
F0003FC0
F0001FC0
F0001FC0
F0000FC0
ENDCHAR
STARTCHAR Ograve
ENCODING 210
SWIDTH 787 0
DWIDTH 38 0
BBX 32 46 3 -1
BITMAP
003E0000
001F0000
000F0000
00078000
0003C000
0001E000
00000000
00000000
00000000
000FF000
007FFE00
01FFFF80
03FFFFC0
07F00FE0
0FC003F0
1F8001F8
1F0000F8
3E00007C
3C00003C
7C00003E
7800001E
7800001E
F800001F
F000000F
F000000F
F000000F
F000000F
F000000F
F000000F
F000000F
F000000F
F000000F
F800001F
7800001E
7800001E
7C00003E
3C00003C
3E00007C
1F0000F8
1F8001F8
0FC003F0
07F00FE0
03FFFFC0
01FFFF80
007FFE00
000FF000
ENDCHAR
STARTCHAR Oacute
ENCODING 211
SWIDTH 787 0
DWIDTH 38 0
BBX 32 46 3 -1
BITMAP
00007800
0000F800
0000F000
0001E000
0003C000
00078000
00000000
00000000
00000000
000FF000
007FFE00
01FFFF80
03FFFFC0
07F00FE0
0FC003F0
1F8001F8
1F0000F8
3E00007C
3C00003C
7C00003E
7800001E
7800001E
F800001F
F000000F
F000000F
F000000F
F000000F
F000000F
F000000F
F000000F
F000000F
F000000F
F800001F
7800001E
7800001E
7C00003E
3C00003C
3E00007C
1F0000F8
1F8001F8
0FC003F0
07F00FE0
03FFFFC0
01FFFF80
007FFE00
000FF000
ENDCHAR
STARTCHAR Ocircumflex
ENCODING 212
SWIDTH 787 0
DWIDTH 38 0
BBX 32 46 3 -1
BITMAP
0007E000
0007E000
000FF000
001E7800
003C3C00
00781E00
00000000
00000000
00000000
000FF000
007FFE00
01FFFF80
03FFFFC0
07F00FE0
0FC003F0
1F8001F8
1F0000F8
3E00007C
3C00003C
7C00003E
7800001E
7800001E
F800001F
F000000F
F000000F
F000000F
F000000F
F000000F
F000000F
F000000F
F000000F
F000000F
F800001F
7800001E
7800001E
7C00003E
3C00003C
3E00007C
1F0000F8
1F8001F8
0FC003F0
07F00FE0
03FFFFC0
01FFFF80
007FFE00
000FF000
ENDCHAR
STARTCHAR Otilde
ENCODING 213
SWIDTH 787 0
DWIDTH 38 0
BBX 32 45 3 -1
BITMAP
003E0E00
007F8E00
00FFFC00
00E3FC00
00E0F800
00000000
00000000
00000000
000FF000
007FFE00
01FFFF80
03FFFFC0
07F00FE0
0FC003F0
1F8001F8
1F0000F8
3E00007C
3C00003C
7C00003E
7800001E
7800001E
F800001F
F000000F
F000000F
F000000F
F000000F
F000000F
F000000F
F000000F
F000000F
F000000F
F800001F
7800001E
7800001E
7C00003E
3C00003C
3E00007C
1F0000F8
1F8001F8
0FC003F0
07F00FE0
03FFFFC0
01FFFF80
007FFE00
000FF000
ENDCHAR
STARTCHAR Odieresis
ENCODING 214
SWIDTH 787 0
DWIDTH 38 0
BBX 32 45 3 -1
BITMAP
007C3E00
007C3E00
007C3E00
007C3E00
007C3E00
00000000
00000000
00000000
000FF000
007FFE00
01FFFF80
03FFFFC0
07F00FE0
0FC003F0
1F8001F8
1F0000F8
3E00007C
3C00003C
7C00003E
7800001E
7800001E
F800001F
F000000F
F000000F
F000000F
F000000F
F000000F
F000000F
F000000F
F000000F
F000000F
F800001F
7800001E
7800001E
7C00003E
3C00003C
3E00007C
1F0000F8
1F8001F8
0FC003F0
07F00FE0
03FFFFC0
01FFFF80
007FFE00
000FF000
ENDCHAR
STARTCHAR multiply
ENCODING 215
SWIDTH 837 0
DWIDTH 40 0
BBX 27 27 7 2
BITMAP
20000080
700001C0
F80003E0
7C0007C0
3E000F80
1F001F00
0F803E00
07C07C00
03E0F800
01F1F000
00FBE000
007FC000
003F8000
001F0000
003F8000
007FC000
00FBE000
01F1F000
03E0F800
07C07C00
0F803E00
1F001F00
3E000F80
7C0007C0
F80003E0
700001C0
20000080
ENDCHAR
STARTCHAR Oslash
ENCODING 216
SWIDTH 787 0
DWIDTH 38 0
BBX 32 39 3 -2
BITMAP
00000002
000FF807
007FFF07
01FFFF8E
03FFFFFE
07F01FFC
0FC003F8
1F8001F8
1F0000FC
3E0001FC
3C0003FE
7C0007BE
78000F9E
78001F1E
F8003E1F
F0007C0F
F000F80F
F000F00F
F001E00F
F003C00F
F007800F
F00F000F
F01F000F
F03E000F
F87C001F
78F8001E
78F0001E
7DE0003E
7FC0003C
3F80007C
3F0000F8
1F8001F8
1FC003F0
3FF80FE0
7FFFFFC0
F3FFFF80
E0FFFE00
E01FF000
40000000
ENDCHAR
STARTCHAR Ugrave
ENCODING 217
SWIDTH 731 0
DWIDTH 35 0
BBX 27 46 5 -1
BITMAP
01F00000
00F80000
00780000
003C0000
001E0000
000F0000
00000000
00000000
00000000
00000000
F00001E0
F00001E0
F00001E0
F00001E0
F00001E0
F00001E0
F00001E0
F00001E0
F00001E0
F00001E0
F00001E0
F00001E0
F00001E0
F00001E0
F00001E0
F00001E0
F00001E0
F00001E0
F00001E0
F00001E0
F00001E0
F00001E0
F00001E0
F00001E0
F00001E0
F00001E0
F80003E0
780003C0
780007C0
7C0007C0
3E000F80
1FC07F00
1FFFFF00
07FFFC00
03FFF800
007FC000
ENDCHAR
STARTCHAR Uacute
ENCODING 218
SWIDTH 731 0
DWIDTH 35 0
BBX 27 46 5 -1
BITMAP
0003C000
0007C000
00078000
000F0000
001E0000
003C0000
00000000
00000000
00000000
00000000
F00001E0
F00001E0
F00001E0
F00001E0
F00001E0
F00001E0
F00001E0
F00001E0
F00001E0
F00001E0
F00001E0
F00001E0
F00001E0
F00001E0
F00001E0
F00001E0
F00001E0
F00001E0
F00001E0
F00001E0
F00001E0
F00001E0
F00001E0
F00001E0
F00001E0
F00001E0
F80003E0
780003C0
780007C0
7C0007C0
3E000F80
1FC07F00
1FFFFF00
07FFFC00
03FFF800
007FC000
ENDCHAR
STARTCHAR Ucircumflex
ENCODING 219
SWIDTH 731 0
DWIDTH 35 0
BBX 27 46 5 -1
BITMAP
003F0000
003F0000
007F8000
00F3C000
01E1E000
03C0F000
00000000
00000000
00000000
00000000
F00001E0
F00001E0
F00001E0
F00001E0
F00001E0
F00001E0
F00001E0
F00001E0
F00001E0
F00001E0
F00001E0
F00001E0
F00001E0
F00001E0
F00001E0
F00001E0
F00001E0
F00001E0
F00001E0
F00001E0
F00001E0
F00001E0
F00001E0
F00001E0
F00001E0
F00001E0
F80003E0
780003C0
780007C0
7C0007C0
3E000F80
1FC07F00
1FFFFF00
07FFFC00
03FFF800
007FC000
ENDCHAR
STARTCHAR Udieresis
ENCODING 220
SWIDTH 731 0
DWIDTH 35 0
BBX 27 45 5 -1
BITMAP
03E1F000
03E1F000
03E1F000
03E1F000
03E1F000
00000000
00000000
00000000
00000000
F00001E0
F00001E0
F00001E0
F00001E0
F00001E0
F00001E0
F00001E0
F00001E0
F00001E0
F00001E0
F00001E0
F00001E0
F00001E0
F00001E0
F00001E0
F00001E0
F00001E0
F00001E0
F00001E0
F00001E0
F00001E0
F00001E0
F00001E0
F00001E0
F00001E0
F00001E0
F80003E0
780003C0
780007C0
7C0007C0
3E000F80
1FC07F00
1FFFFF00
07FFFC00
03FFF800
007FC000
ENDCHAR
STARTCHAR Yacute
ENCODING 221
SWIDTH 610 0
DWIDTH 29 0
BBX 28 45 0 0
BITMAP
0000F000
0001F000
0001E000
0003C000
00078000
000F0000
00000000
00000000
00000000
00000000
F80001F0
7C0003E0
3C0003C0
3E0007C0
1F000F80
0F000F00
0F801F00
07C03E00
03C03C00
03E07C00
01F0F800
00F0F000
00F9F000
007FE000
007FE000
003FC000
001F8000
001F8000
000F0000
000F0000
000F0000
000F0000
000F0000
000F0000
000F0000
000F0000
000F0000
000F0000
000F0000
000F0000
000F0000
000F0000
000F0000
000F0000
000F0000
ENDCHAR
STARTCHAR Thorn
ENCODING 222
SWIDTH 604 0
DWIDTH 29 0
BBX 23 35 5 0
BITMAP
F00000
F00000
F00000
F00000
F00000
F00000
FFFF00
FFFFC0
FFFFF0
FFFFF8
F001FC
F0007C
F0003C
F0003E
F0001E
F0001E
F0001E
F0001E
F0001E
F0003E
F0003C
F0007C
F001F8
FFFFF8
FFFFF0
FFFFC0
FFFE00
F00000
F00000
F00000
F00000
F00000
F00000
F00000
F00000
ENDCHAR
STARTCHAR germandbls
ENCODING 223
SWIDTH 629 0
DWIDTH 30 0
BBX 24 37 4 -1
BITMAP
01FE00
0FFF80
1FFFC0
3FFFE0
7F03F0
7C01F0
F800F0
F00078
F00078
F001F8
F007F8
F01F80
F03E00
F03C00
F07800
F07800
F07800
F07800
F07C00
F03F00
F03FC0
F01FE0
F00FF8
F003FC
F000FE
F0003E
F0001F
F0000F
F0000F
F0000F
F0000F
F0001F
F1807E
F1FFFE
F1FFFC
F1FFF0
007FC0
ENDCHAR
STARTCHAR agrave
ENCODING 224
SWIDTH 612 0
DWIDTH 29 0
BBX 22 39 3 -1
BITMAP
1F0000
0F8000
078000
03C000
01E000
00E000
00F000
007800
003C00
000000
000000
01FE00
1FFF80
3FFFE0
3FFFF0
3C03F0
2000F8
000078
00003C
00003C
00003C
01FFFC
0FFFFC
1FFFFC
3FFFFC
7F003C
7C003C
F8003C
F0003C
F0007C
F0007C
F0007C
F800FC
F801FC
7E07FC
7FFFBC
3FFF3C
1FFE3C
03F000
ENDCHAR
STARTCHAR aacute
ENCODING 225
SWIDTH 612 0
DWIDTH 29 0
BBX 22 39 3 -1
BITMAP
0003E0
0007C0
000780
000F00
001E00
003C00
003C00
007800
00F000
000000
000000
01FE00
1FFF80
3FFFE0
3FFFF0
3C03F0
2000F8
000078
00003C
00003C
00003C
01FFFC
0FFFFC
1FFFFC
3FFFFC
7F003C
7C003C
F8003C
F0003C
F0007C
F0007C
F0007C
F800FC
F801FC
7E07FC
7FFFBC
3FFF3C
1FFE3C
03F000
ENDCHAR
STARTCHAR acircumflex
ENCODING 226
SWIDTH 612 0
DWIDTH 29 0
BBX 22 39 3 -1
BITMAP
007C00
007C00
00FE00
00EE00
01EF00
03C780
038380
0701C0
0F01E0
000000
000000
01FE00
1FFF80
3FFFE0
3FFFF0
3C03F0
2000F8
000078
00003C
00003C
00003C
01FFFC
0FFFFC
1FFFFC
3FFFFC
7F003C
7C003C
F8003C
F0003C
F0007C
F0007C
F0007C
F800FC
F801FC
7E07FC
7FFFBC
3FFF3C
1FFE3C
03F000
ENDCHAR
STARTCHAR atilde
ENCODING 227
SWIDTH 612 0
DWIDTH 29 0
BBX 22 38 3 -1
BITMAP
0381C0
0FE1C0
0FF1C0
1EF3C0
1C7F80
1C3F80
1C0E00
000000
000000
000000
01FE00
1FFF80
3FFFE0
3FFFF0
3C03F0
2000F8
000078
00003C
00003C
00003C
01FFFC
0FFFFC
1FFFFC
3FFFFC
7F003C
7C003C
F8003C
F0003C
F0007C
F0007C
F0007C
F800FC
F801FC
7E07FC
7FFFBC
3FFF3C
1FFE3C
03F000
ENDCHAR
STARTCHAR adieresis
ENCODING 228
SWIDTH 612 0
DWIDTH 29 0
BBX 22 37 3 -1
BITMAP
0F87C0
0F87C0
0F87C0
0F87C0
0F87C0
000000
000000
000000
000000
01FE00
1FFF80
3FFFE0
3FFFF0
3C03F0
2000F8
000078
00003C
00003C
00003C
01FFFC
0FFFFC
1FFFFC
3FFFFC
7F003C
7C003C
F8003C
F0003C
F0007C
F0007C
F0007C
F800FC
F801FC
7E07FC
7FFFBC
3FFF3C
1FFE3C
03F000
ENDCHAR
STARTCHAR aring
ENCODING 229
SWIDTH 612 0
DWIDTH 29 0
BBX 22 43 3 -1
BITMAP
007C00
01FF00
03FF80
03C780
0783C0
0701C0
0701C0
0701C0
0783C0
03C780
03FF80
01FF00
007C00
000000
000000
01FE00
1FFF80
3FFFE0
3FFFF0
3C03F0
2000F8
000078
00003C
00003C
00003C
01FFFC
0FFFFC
1FFFFC
3FFFFC
7F003C
7C003C
F8003C
F0003C
F0007C
F0007C
F0007C
F800FC
F801FC
7E07FC
7FFFBC
3FFF3C
1FFE3C
03F000
ENDCHAR
STARTCHAR ae
ENCODING 230
SWIDTH 981 0
DWIDTH 47 0
BBX 42 28 3 -1
BITMAP
01FE003FC000
1FFFC0FFF800
3FFFE3FFFC00
3FFFF7FFFE00
3C03FFE03F00
2000FF801F00
00007F000F80
00003E000780
00003E0003C0
00003C0003C0
01FFFC0003C0
0FFFFFFFFFC0
1FFFFFFFFFC0
3FFFFFFFFFC0
7F003FFFFFC0
7C003C000000
F8003C000000
F0003C000000
F0007E000000
F0007E000000
F0007F000000
F800FF000000
F801EFC00080
7E07E7F00F80
7FFFC3FFFF80
3FFF81FFFF80
1FFE00FFFF00
03F8001FF000
ENDCHAR
STARTCHAR ccedilla
ENCODING 231
SWIDTH 549 0
DWIDTH 26 0
BBX 21 36 3 -9
BITMAP
007F80
01FFF0
07FFF8
0FFFF8
1FC078
3F0008
3E0000
7C0000
780000
F80000
F00000
F00000
F00000
F00000
F00000
F00000
F00000
F00000
F80000
780000
7C0000
3E0000
3F0008
1FC078
0FFFF8
07FFF8
03FFF0
007F80
000600
000700
000380
000380
010780
01FF80
01FF00
01FC00
ENDCHAR
STARTCHAR egrave
ENCODING 232
SWIDTH 615 0
DWIDTH 30 0
BBX 24 39 3 -1
BITMAP
0F8000
07C000
03C000
01E000
00F000
007000
007800
003C00
001E00
000000
000000
007F00
03FFE0
07FFF0
0FFFF8
1F80FC
3E007C
3C003E
78001E
78000F
70000F
F0000F
FFFFFF
FFFFFF
FFFFFF
FFFFFF
F00000
F00000
F00000
F80000
780000
7C0000
3E0000
3F0002
1FC03E
0FFFFE
07FFFE
01FFFC
007FC0
ENDCHAR
STARTCHAR eacute
ENCODING 233
SWIDTH 615 0
DWIDTH 30 0
BBX 24 39 3 -1
BITMAP
0001F0
0003E0
0003C0
000780
000F00
001E00
001E00
003C00
007800
000000
000000
007F00
03FFE0
07FFF0
0FFFF8
1F80FC
3E007C
3C003E
78001E
78000F
70000F
F0000F
FFFFFF
FFFFFF
FFFFFF
FFFFFF
F00000
F00000
F00000
F80000
780000
7C0000
3E0000
3F0002
1FC03E
0FFFFE
07FFFE
01FFFC
007FC0
ENDCHAR
STARTCHAR ecircumflex
ENCODING 234
SWIDTH 615 0
DWIDTH 30 0
BBX 24 39 3 -1
BITMAP
003E00
003E00
007F00
007700
00F780
01E3C0
01C1C0
0380E0
0780F0
000000
000000
007F00
03FFE0
07FFF0
0FFFF8
1F80FC
3E007C
3C003E
78001E
78000F
70000F
F0000F
FFFFFF
FFFFFF
FFFFFF
FFFFFF
F00000
F00000
F00000
F80000
780000
7C0000
3E0000
3F0002
1FC03E
0FFFFE
07FFFE
01FFFC
007FC0
ENDCHAR
STARTCHAR edieresis
ENCODING 235
SWIDTH 615 0
DWIDTH 30 0
BBX 24 37 3 -1
BITMAP
07C3E0
07C3E0
07C3E0
07C3E0
07C3E0
000000
000000
000000
000000
007F00
03FFE0
07FFF0
0FFFF8
1F80FC
3E007C
3C003E
78001E
78000F
70000F
F0000F
FFFFFF
FFFFFF
FFFFFF
FFFFFF
F00000
F00000
F00000
F80000
780000
7C0000
3E0000
3F0002
1FC03E
0FFFFE
07FFFE
01FFFC
007FC0
ENDCHAR
STARTCHAR igrave
ENCODING 236
SWIDTH 277 0
DWIDTH 13 0
BBX 11 38 -1 0
BITMAP
F800
7C00
3C00
1E00
0F00
0700
0780
03C0
01E0
0000
0000
0000
0780
0780
0780
0780
0780
0780
0780
0780
0780
0780
0780
0780
0780
0780
0780
0780
0780
0780
0780
0780
0780
0780
0780
0780
0780
0780
ENDCHAR
STARTCHAR iacute
ENCODING 237
SWIDTH 277 0
DWIDTH 13 0
BBX 11 38 4 0
BITMAP
03E0
07C0
0780
0F00
1E00
3C00
3C00
7800
F000
0000
0000
0000
F000
F000
F000
F000
F000
F000
F000
F000
F000
F000
F000
F000
F000
F000
F000
F000
F000
F000
F000
F000
F000
F000
F000
F000
F000
F000
ENDCHAR
STARTCHAR icircumflex
ENCODING 238
SWIDTH 277 0
DWIDTH 13 0
BBX 15 38 0 0
BITMAP
07C0
07C0
0FE0
0EE0
1EF0
3C78
3838
701C
F01E
0000
0000
0000
0F00
0F00
0F00
0F00
0F00
0F00
0F00
0F00
0F00
0F00
0F00
0F00
0F00
0F00
0F00
0F00
0F00
0F00
0F00
0F00
0F00
0F00
0F00
0F00
0F00
0F00
ENDCHAR
STARTCHAR idieresis
ENCODING 239
SWIDTH 277 0
DWIDTH 13 0
BBX 14 36 0 0
BITMAP
F87C
F87C
F87C
F87C
F87C
0000
0000
0000
0000
0000
0F00
0F00
0F00
0F00
0F00
0F00
0F00
0F00
0F00
0F00
0F00
0F00
0F00
0F00
0F00
0F00
0F00
0F00
0F00
0F00
0F00
0F00
0F00
0F00
0F00
0F00
ENDCHAR
STARTCHAR eth
ENCODING 240
SWIDTH 611 0
DWIDTH 29 0
BBX 24 37 3 -1
BITMAP
07C000
03E038
01F1FC
00FFF0
00FF00
07FE00
3FDF00
3C0F80
0007C0
0003E0
00FFF0
03FFF8
0FFFF8
1FFFFC
1FC0FC
3E003E
7C003E
7C001E
78001E
F8000F
F0000F
F0000F
F0000F
F0000F
F0000F
F0000F
F0000F
F8001F
78001E
78003E
7C003E
3E007C
1F81F8
1FFFF8
07FFE0
03FFC0
00FF00
ENDCHAR
STARTCHAR ntilde
ENCODING 241
SWIDTH 633 0
DWIDTH 30 0
BBX 22 37 4 0
BITMAP
01C0E0
07F0E0
07F8E0
0F79E0
0E3FC0
0E1FC0
0E0700
000000
000000
000000
007F00
F1FFC0
F3FFE0
F7FFF0
FF81F8
FE00F8
FC0078
F8007C
F8003C
F0003C
F0003C
F0003C
F0003C
F0003C
F0003C
F0003C
F0003C
F0003C
F0003C
F0003C
F0003C
F0003C
F0003C
F0003C
F0003C
F0003C
F0003C
ENDCHAR
STARTCHAR ograve
ENCODING 242
SWIDTH 611 0
DWIDTH 29 0
BBX 24 39 3 -1
BITMAP
0F8000
07C000
03C000
01E000
00F000
007000
007800
003C00
001E00
000000
000000
00FF00
03FFC0
0FFFF0
1FFFF8
1F81F8
3E007C
7C003E
7C003E
78001E
F8001F
F0000F
F0000F
F0000F
F0000F
F0000F
F0000F
F0000F
F0000F
F8001F
78001E
7C003E
7C003E
3E007C
1F81F8
1FFFF8
0FFFF0
03FFC0
00FF00
ENDCHAR
STARTCHAR oacute
ENCODING 243
SWIDTH 611 0
DWIDTH 29 0
BBX 24 39 3 -1
BITMAP
0001F0
0003E0
0003C0
000780
000F00
001E00
001E00
003C00
007800
000000
000000
00FF00
03FFC0
0FFFF0
1FFFF8
1F81F8
3E007C
7C003E
7C003E
78001E
F8001F
F0000F
F0000F
F0000F
F0000F
F0000F
F0000F
F0000F
F0000F
F8001F
78001E
7C003E
7C003E
3E007C
1F81F8
1FFFF8
0FFFF0
03FFC0
00FF00
ENDCHAR
STARTCHAR ocircumflex
ENCODING 244
SWIDTH 611 0
DWIDTH 29 0
BBX 24 39 3 -1
BITMAP
003E00
003E00
007F00
007700
00F780
01E3C0
01C1C0
0380E0
0780F0
000000
000000
00FF00
03FFC0
0FFFF0
1FFFF8
1F81F8
3E007C
7C003E
7C003E
78001E
F8001F
F0000F
F0000F
F0000F
F0000F
F0000F
F0000F
F0000F
F0000F
F8001F
78001E
7C003E
7C003E
3E007C
1F81F8
1FFFF8
0FFFF0
03FFC0
00FF00
ENDCHAR
STARTCHAR otilde
ENCODING 245
SWIDTH 611 0
DWIDTH 29 0
BBX 24 38 3 -1
BITMAP
01C0E0
07F0E0
07F8E0
0F79E0
0E3FC0
0E1FC0
0E0700
000000
000000
000000
00FF00
03FFC0
0FFFF0
1FFFF8
1F81F8
3E007C
7C003E
7C003E
78001E
F8001F
F0000F
F0000F
F0000F
F0000F
F0000F
F0000F
F0000F
F0000F
F8001F
78001E
7C003E
7C003E
3E007C
1F81F8
1FFFF8
0FFFF0
03FFC0
00FF00
ENDCHAR
STARTCHAR odieresis
ENCODING 246
SWIDTH 611 0
DWIDTH 29 0
BBX 24 37 3 -1
BITMAP
07C3E0
07C3E0
07C3E0
07C3E0
07C3E0
000000
000000
000000
000000
00FF00
03FFC0
0FFFF0
1FFFF8
1F81F8
3E007C
7C003E
7C003E
78001E
F8001F
F0000F
F0000F
F0000F
F0000F
F0000F
F0000F
F0000F
F0000F
F8001F
78001E
7C003E
7C003E
3E007C
1F81F8
1FFFF8
0FFFF0
03FFC0
00FF00
ENDCHAR
STARTCHAR divide
ENCODING 247
SWIDTH 837 0
DWIDTH 40 0
BBX 30 24 5 3
BITMAP
000FC000
000FC000
000FC000
000FC000
000FC000
000FC000
00000000
00000000
00000000
00000000
FFFFFFFC
FFFFFFFC
FFFFFFFC
FFFFFFFC
00000000
00000000
00000000
00000000
000FC000
000FC000
000FC000
000FC000
000FC000
000FC000
ENDCHAR
STARTCHAR oslash
ENCODING 248
SWIDTH 611 0
DWIDTH 29 0
BBX 26 30 2 -2
BITMAP
00000180
007F83C0
01FFE380
07FFFF00
0FFFFF00
0FC0FE00
1F003E00
3E003F00
3E007F00
3C00FF00
7C01EF80
7803C780
78078780
780F0780
781E0780
781E0780
783C0780
78780780
78F00780
7DE00F80
3FC00F00
3F801F00
3F001F00
1F003E00
1FC0FC00
3FFFFC00
7FFFF000
71FFE000
F07F8000
60000000
ENDCHAR
STARTCHAR ugrave
ENCODING 249
SWIDTH 633 0
DWIDTH 30 0
BBX 22 39 4 -1
BITMAP
1F0000
0F8000
078000
03C000
01E000
00E000
00F000
007800
003C00
000000
000000
000000
F0003C
F0003C
F0003C
F0003C
F0003C
F0003C
F0003C
F0003C
F0003C
F0003C
F0003C
F0003C
F0003C
F0003C
F0003C
F0003C
F0003C
F0003C
F0007C
F8007C
7800FC
7C01FC
7E07FC
3FFFBC
1FFF3C
0FFE3C
03F800
ENDCHAR
STARTCHAR uacute
ENCODING 250
SWIDTH 633 0
DWIDTH 30 0
BBX 22 39 4 -1
BITMAP
0003E0
0007C0
000780
000F00
001E00
003C00
003C00
007800
00F000
000000
000000
000000
F0003C
F0003C
F0003C
F0003C
F0003C
F0003C
F0003C
F0003C
F0003C
F0003C
F0003C
F0003C
F0003C
F0003C
F0003C
F0003C
F0003C
F0003C
F0007C
F8007C
7800FC
7C01FC
7E07FC
3FFFBC
1FFF3C
0FFE3C
03F800
ENDCHAR
STARTCHAR ucircumflex
ENCODING 251
SWIDTH 633 0
DWIDTH 30 0
BBX 22 39 4 -1
BITMAP
007C00
007C00
00FE00
00EE00
01EF00
03C780
038380
0701C0
0F01E0
000000
000000
000000
F0003C
F0003C
F0003C
F0003C
F0003C
F0003C
F0003C
F0003C
F0003C
F0003C
F0003C
F0003C
F0003C
F0003C
F0003C
F0003C
F0003C
F0003C
F0007C
F8007C
7800FC
7C01FC
7E07FC
3FFFBC
1FFF3C
0FFE3C
03F800
ENDCHAR
STARTCHAR udieresis
ENCODING 252
SWIDTH 633 0
DWIDTH 30 0
BBX 22 37 4 -1
BITMAP
0F87C0
0F87C0
0F87C0
0F87C0
0F87C0
000000
000000
000000
000000
000000
F0003C
F0003C
F0003C
F0003C
F0003C
F0003C
F0003C
F0003C
F0003C
F0003C
F0003C
F0003C
F0003C
F0003C
F0003C
F0003C
F0003C
F0003C
F0007C
F8007C
7800FC
7C01FC
7E07FC
3FFFBC
1FFF3C
0FFE3C
03F800
ENDCHAR
STARTCHAR yacute
ENCODING 253
SWIDTH 591 0
DWIDTH 28 0
BBX 26 48 1 -10
BITMAP
0000F800
0001F000
0001E000
0003C000
00078000
000F0000
000F0000
001E0000
003C0000
00000000
00000000
00000000
F80007C0
78000780
78000780
7C000F80
3C000F00
3E001F00
1E001E00
1E003E00
0F003C00
0F003C00
0F807C00
07807800
0780F800
03C0F000
03C1F000
03E1E000
01E1E000
01F3E000
00F3C000
00F7C000
00FF8000
007F8000
007F0000
003F0000
003F0000
001E0000
003E0000
003C0000
007C0000
00780000
00F80000
01F80000
3FF00000
3FE00000
3FC00000
3F800000
ENDCHAR
STARTCHAR thorn
ENCODING 254
SWIDTH 634 0
DWIDTH 30 0
BBX 23 46 4 -10
BITMAP
F00000
F00000
F00000
F00000
F00000
F00000
F00000
F00000
F00000
F07F00
F1FFC0
F3FFE0
F7FFF0
FF83F0
FE00F8
FC007C
F8003C
F8003C
F8003E
F0001E
F0001E
F0001E
F0001E
F0001E
F0001E
F0001E
F0001E
F8003E
F8003C
F8003C
FC007C
FE00F8
FF83F0
F7FFF0
F3FFE0
F1FFC0
F07E00
F00000
F00000
F00000
F00000
F00000
F00000
F00000
F00000
F00000
ENDCHAR
STARTCHAR ydieresis
ENCODING 255
SWIDTH 591 0
DWIDTH 28 0
BBX 26 46 1 -10
BITMAP
03E1F000
03E1F000
03E1F000
03E1F000
03E1F000
00000000
00000000
00000000
00000000
00000000
F80007C0
78000780
78000780
7C000F80
3C000F00
3E001F00
1E001E00
1E003E00
0F003C00
0F003C00
0F807C00
07807800
0780F800
03C0F000
03C1F000
03E1E000
01E1E000
01F3E000
00F3C000
00F7C000
00FF8000
007F8000
007F0000
003F0000
003F0000
001E0000
003E0000
003C0000
007C0000
00780000
00F80000
01F80000
3FF00000
3FE00000
3FC00000
3F800000
ENDCHAR
STARTCHAR .notdef
ENCODING -1
SWIDTH 600 0
DWIDTH 29 0
BBX 24 42 2 -8
BITMAP
FFFFFF
FFFFFF
FFFFFF
E00007
E00007
E00007
E00007
E00007
E00007
E00007
E00007
E00007
E00007
E00007
E00007
E00007
E00007
E00007
E00007
E00007
E00007
E00007
E00007
E00007
E00007
E00007
E00007
E00007
E00007
E00007
E00007
E00007
E00007
E00007
E00007
E00007
E00007
E00007
E00007
FFFFFF
FFFFFF
FFFFFF
ENDCHAR
STARTCHAR .null
ENCODING -1
SWIDTH 0 0
DWIDTH 0 0
BBX 1 1 0 0
BITMAP
00
ENDCHAR
STARTCHAR nonmarkingreturn
ENCODING -1
SWIDTH 317 0
DWIDTH 15 0
BBX 1 1 0 0
BITMAP
00
ENDCHAR
STARTCHAR dagger
ENCODING -1
SWIDTH 500 0
DWIDTH 24 0
BBX 22 40 1 -5
BITMAP
007800
007800
007800
007800
007800
007800
007800
007800
007800
007800
FFFFFC
FFFFFC
FFFFFC
FFFFFC
007800
007800
007800
007800
007800
007800
007800
007800
007800
007800
007800
007800
007800
007800
007800
007800
007800
007800
007800
007800
007800
007800
007800
007800
007800
007800
ENDCHAR
STARTCHAR bullet
ENCODING -1
SWIDTH 589 0
DWIDTH 28 0
BBX 14 14 7 11
BITMAP
0FC0
1FE0
3FF0
7FF8
FFFC
FFFC
FFFC
FFFC
FFFC
FFFC
7FF8
3FF0
1FE0
0FC0
ENDCHAR
STARTCHAR trademark
ENCODING -1
SWIDTH 1000 0
DWIDTH 48 0
BBX 31 14 7 21
BITMAP
FFF9E01E
FFF9F03E
0701F87E
0701D86E
0701DCEE
0701CECE
0701C7CE
0701C78E
0701C38E
0701C30E
0701C00E
0701C00E
0701C00E
0701C00E
ENDCHAR
STARTCHAR notequal
ENCODING -1
SWIDTH 837 0
DWIDTH 40 0
BBX 30 28 5 1
BITMAP
00000080
000001C0
000003E0
000007C0
00000F80
00001F00
00003E00
FFFFFFFC
FFFFFFFC
FFFFFFFC
FFFFFFFC
0003E000
0003E000
0007C000
000F8000
001F0000
001F0000
FFFFFFFC
FFFFFFFC
FFFFFFFC
FFFFFFFC
01E00000
03E00000
07C00000
0F800000
1F000000
0E000000
04000000
ENDCHAR
STARTCHAR infinity
ENCODING -1
SWIDTH 833 0
DWIDTH 40 0
BBX 30 18 5 5
BITMAP
07C00F80
1FE03FE0
3FF07FF0
7FF8FFF8
783CF838
F01DE018
E00FE01C
C007C00C
C007800C
C007800C
C00F000C
C00F800C
601FC01C
603EE038
787C78F8
3FF83FF0
1FF01FE0
07C00F80
ENDCHAR
STARTCHAR lessequal
ENCODING -1
SWIDTH 837 0
DWIDTH 40 0
BBX 30 28 5 0
BITMAP
0000000C
0000007C
000007FC
00003FFC
0003FFF8
001FFF80
01FFFC00
0FFFC000
FFFE0000
FFE00000
FF000000
FFE00000
FFFE0000
0FFFC000
01FFFC00
001FFF80
0003FFF8
00003FFC
000007FC
0000007C
0000000C
00000000
00000000
00000000
FFFFFFFC
FFFFFFFC
FFFFFFFC
FFFFFFFC
ENDCHAR
STARTCHAR greaterequal
ENCODING -1
SWIDTH 837 0
DWIDTH 40 0
BBX 30 28 5 0
BITMAP
C0000000
F8000000
FF800000
FFF00000
7FFF0000
07FFE000
00FFFE00
000FFFC0
0001FFFC
00001FFC
000003FC
00001FFC
0001FFFC
000FFFC0
00FFFE00
07FFE000
7FFF0000
FFF00000
FF800000
F8000000
C0000000
00000000
00000000
00000000
FFFFFFFC
FFFFFFFC
FFFFFFFC
FFFFFFFC
ENDCHAR
STARTCHAR partialdiff
ENCODING -1
SWIDTH 517 0
DWIDTH 25 0
BBX 20 31 2 0
BITMAP
00FC00
03FE00
07FF80
07E380
0781C0
0201E0
0000E0
0000E0
0000F0
0000F0
0000F0
0000F0
03F0F0
0FF8F0
1F0DF0
3E07F0
7C03F0
7803F0
7803F0
F803E0
F003E0
F003E0
F003C0
F003C0
F00780
F00780
700700
700E00
381E00
1C3800
07E000
ENDCHAR
STARTCHAR summation
ENCODING -1
SWIDTH 673 0
DWIDTH 32 0
BBX 31 44 1 -9
BITMAP
7FFFFFFC
7FFFFFFC
7FFFFFFC
7FFFFFFC
7FFFFFFC
3F000000
1F800000
0FC00000
07E00000
03F00000
03F80000
01FC0000
00FE0000
007F0000
003F8000
001FC000
000FE000
0007F000
0003F800
0001F800
0000FC00
00007E00
00007E00
0000FC00
0001F800
0003F000
0007E000
000FC000
001F8000
003F0000
007E0000
00FC0000
01F80000
03F00000
03F00000
07E00000
0FC00000
1F800000
3F000000
7FFFFFFE
FFFFFFFE
FFFFFFFE
FFFFFFFE
FFFFFFFE
ENDCHAR
STARTCHAR product
ENCODING -1
SWIDTH 756 0
DWIDTH 36 0
BBX 29 44 4 -9
BITMAP
FFFFFFF8
FFFFFFF8
FFFFFFF8
FFFFFFF8
F0000078
F0000078
F0000078
F0000078
F0000078
F0000078
F0000078
F0000078
F0000078
F0000078
F0000078
F0000078
F0000078
F0000078
F0000078
F0000078
F0000078
F0000078
F0000078
F0000078
F0000078
F0000078
F0000078
F0000078
F0000078
F0000078
F0000078
F0000078
F0000078
F0000078
F0000078
F0000078
F0000078
F0000078
F0000078
F0000078
F0000078
F0000078
F0000078
F0000078
ENDCHAR
STARTCHAR pi
ENCODING -1
SWIDTH 588 0
DWIDTH 28 0
BBX 29 25 -1 0
BITMAP
0FFFFFF8
3FFFFFF8
3FFFFFF8
7FFFFFF0
78F00F00
F8F00F00
F1F01F00
01F01E00
01E01E00
01E01E00
01E01E00
03E03C00
03E03C00
03C03C00
03C03C00
07C03800
07C07800
07807800
07807800
07807800
0F807C00
0F807F80
0F007F80
0F003F80
1F001F80
ENDCHAR
STARTCHAR integral
ENCODING -1
SWIDTH 520 0
DWIDTH 25 0
BBX 22 45 1 -9
BITMAP
0001F0
0003F8
0006FC
000E7C
000C7C
001C38
001C00
001C00
003C00
003C00
003800
003800
003800
003800
007800
007800
007800
007800
007800
007800
007800
007800
007800
007800
007800
007800
007800
007800
007800
007800
007800
007000
007000
007000
00F000
00F000
00F000
00E000
70E000
F8E000
FDC000
FDC000
FF8000
7F0000
3E0000
ENDCHAR
STARTCHAR Omega
ENCODING -1
SWIDTH 764 0
DWIDTH 37 0
BBX 32 36 2 0
BITMAP
000FF000
007FFE00
01FFFF80
03FFFFC0
07F00FE0
0FC003F0
1F0000F8
3E00007C
3E00003C
7C00003E
7800001E
7800001E
F800001F
F000000F
F000000F
F000000F
F000000F
F000000F
F000000F
F000000F
F000000F
F800001F
7800001E
7800001E
7C00003E
3E00007C
3E00007C
1F0000F8
0F8001F8
0FC003F0
07E007E0
03F81FC0
FFFC3FFF
FFFC3FFF
FFFC3FFF
FFFC3FFF
ENDCHAR
STARTCHAR radical
ENCODING -1
SWIDTH 637 0
DWIDTH 31 0
BBX 29 40 1 -1
BITMAP
000000F8
000000F8
000000C0
000001C0
00000180
00000180
00000380
00000300
00000700
00000700
00000600
00000E00
00000C00
00000C00
00001C00
00001800
06001800
3E003800
FF003000
CF007000
0F007000
0F806000
0780E000
0780C000
07C0C000
03C1C000
03C18000
03E38000
01E38000
01E30000
00F70000
00F70000
00F60000
007E0000
007C0000
007C0000
003C0000
00380000
00380000
00180000
ENDCHAR
STARTCHAR florin
ENCODING -1
SWIDTH 636 0
DWIDTH 31 0
BBX 29 46 1 -10
BITMAP
000007F0
00000FF8
00003FF8
00003FF8
00007E08
0000F800
0000F800
0000F000
0000F000
0001E000
0001E000
0001E000
0001E000
0001E000
0003E000
0003C000
00FFFF80
00FFFF80
00FFFF80
00FFFF80
00078000
00078000
00078000
00078000
000F8000
000F0000
000F0000
000F0000
000F0000
001E0000
001E0000
001E0000
001E0000
001E0000
003C0000
003C0000
003C0000
003C0000
00780000
00780000
00F80000
81F00000
FFF00000
FFE00000
FFC00000
7F000000
ENDCHAR
STARTCHAR approxequal
ENCODING -1
SWIDTH 837 0
DWIDTH 40 0
BBX 30 16 5 7
BITMAP
07F0000C
1FFE001C
7FFFE07C
FFFFFFFC
F81FFFF8
E001FFE0
80003F80
00000000
00000000
07F00004
1FFE001C
7FFFE07C
FFFFFFFC
F81FFFF8
E001FFE0
C0003F80
ENDCHAR
STARTCHAR Delta
ENCODING -1
SWIDTH 668 0
DWIDTH 32 0
BBX 32 35 0 0
BITMAP
0007E000
0007E000
000FE000
000FF000
000FF000
001FF800
001EF800
003E7800
003E7C00
003C3C00
007C3E00
007C3E00
00781E00
00F81F00
00F01F00
01F00F80
01F00F80
01E00780
03E007C0
03E007C0
03C003C0
07C003E0
078003E0
0F8001F0
0F8001F0
0F0000F0
1F0000F8
1F0000F8
3E00007C
3E00007C
3C00007C
7FFFFFFE
7FFFFFFE
7FFFFFFE
FFFFFFFF
ENDCHAR
STARTCHAR ellipsis
ENCODING -1
SWIDTH 1000 0
DWIDTH 48 0
BBX 36 6 6 0
BITMAP
F000F000F0
F000F000F0
F000F000F0
F000F000F0
F000F000F0
F000F000F0
ENDCHAR
STARTCHAR OE
ENCODING -1
SWIDTH 1069 0
DWIDTH 51 0
BBX 46 35 3 0
BITMAP
0003FFFFFFFC
003FFFFFFFFC
00FFFFFFFFFC
03FFFFFFFFFC
07FC01E00000
0FE001E00000
1F8001E00000
1F0001E00000
3E0001E00000
7C0001E00000
780001E00000
780001E00000
F80001E00000
F00001E00000
F00001FFFFF8
F00001FFFFF8
F00001FFFFF8
F00001FFFFF8
F00001E00000
F00001E00000
F00001E00000
F00001E00000
F80001E00000
780001E00000
780001E00000
7C0001E00000
3E0001E00000
1F0001E00000
1F8001E00000
0FE001E00000
07FC01E00000
03FFFFFFFFFC
00FFFFFFFFFC
003FFFFFFFFC
0003FFFFFFFC
ENDCHAR
STARTCHAR oe
ENCODING -1
SWIDTH 1022 0
DWIDTH 49 0
BBX 44 28 3 -1
BITMAP
00FF0007F000
03FFC03FFE00
0FFFF0FFFF00
1FFFF9FFFF80
1F81FFF80FC0
3E007FE007C0
7C003FC003E0
7C003F8001E0
78001F8000F0
F8001F0000F0
F0000F0000F0
F0000FFFFFF0
F0000FFFFFF0
F0000FFFFFF0
F0000FFFFFF0
F0000F000000
F0000F000000
F0000F000000
F8001F800000
78001F800000
7C003FC00000
7C003FC00000
3E007FF00020
1F81FFFC03E0
1FFFF9FFFFE0
0FFFF07FFFE0
03FFC03FFFC0
00FF0007FC00
ENDCHAR
STARTCHAR endash
ENCODING -1
SWIDTH 500 0
DWIDTH 24 0
BBX 24 4 0 11
BITMAP
FFFFFF
FFFFFF
FFFFFF
FFFFFF
ENDCHAR
STARTCHAR emdash
ENCODING -1
SWIDTH 1000 0
DWIDTH 48 0
BBX 48 4 0 11
BITMAP
FFFFFFFFFFFF
FFFFFFFFFFFF
FFFFFFFFFFFF
FFFFFFFFFFFF
ENDCHAR
STARTCHAR quotedblleft
ENCODING -1
SWIDTH 518 0
DWIDTH 25 0
BBX 15 12 4 23
BITMAP
1C0E
3C1E
381C
381C
783C
783C
F078
F078
F078
F078
F078
F078
ENDCHAR
STARTCHAR quotedblright
ENCODING -1
SWIDTH 518 0
DWIDTH 25 0
BBX 15 12 4 23
BITMAP
3C1E
3C1E
3C1E
3C1E
3C1E
3C1E
783C
783C
7038
7038
F078
E070
ENDCHAR
STARTCHAR quoteleft
ENCODING -1
SWIDTH 317 0
DWIDTH 15 0
BBX 6 12 4 23
BITMAP
1C
3C
38
38
78
78
F0
F0
F0
F0
F0
F0
ENDCHAR
STARTCHAR quoteright
ENCODING -1
SWIDTH 317 0
DWIDTH 15 0
BBX 7 12 4 23
BITMAP
3E
3E
3E
3E
3E
3C
7C
78
78
70
F0
E0
ENDCHAR
STARTCHAR lozenge
ENCODING -1
SWIDTH 494 0
DWIDTH 24 0
BBX 23 50 0 -11
BITMAP
001000
001000
003800
003800
007C00
007C00
00EE00
00EE00
00C600
01C700
018300
038380
030180
0701C0
0600C0
0E00E0
0E00E0
1C0070
1C0070
380038
380038
300018
70001C
60000C
E0000E
E0000E
60000C
70001C
300018
380038
180030
1C0070
1C0070
0E00E0
0E00E0
0600C0
0701C0
030180
038380
018300
01C700
00C600
00EE00
006E00
007C00
007C00
003800
003800
001000
001000
ENDCHAR
STARTCHAR Ydieresis
ENCODING -1
SWIDTH 610 0
DWIDTH 29 0
BBX 28 44 0 0
BITMAP
00F87C00
00F87C00
00F87C00
00F87C00
00F87C00
00000000
00000000
00000000
00000000
F80001F0
7C0003E0
3C0003C0
3E0007C0
1F000F80
0F000F00
0F801F00
07C03E00
03C03C00
03E07C00
01F0F800
00F0F000
00F9F000
007FE000
007FE000
003FC000
001F8000
001F8000
000F0000
000F0000
000F0000
000F0000
000F0000
000F0000
000F0000
000F0000
000F0000
000F0000
000F0000
000F0000
000F0000
000F0000
000F0000
000F0000
000F0000
ENDCHAR
STARTCHAR fraction
ENCODING -1
SWIDTH 166 0
DWIDTH 8 0
BBX 26 37 -9 -1
BITMAP
000003C0
00000380
00000780
00000F00
00000E00
00001E00
00001C00
00003800
00007800
00007000
0000F000
0001E000
0001C000
0003C000
00038000
00078000
000F0000
000E0000
001E0000
001C0000
003C0000
00780000
00700000
00F00000
00E00000
01E00000
03C00000
03800000
07800000
07000000
0E000000
1E000000
1C000000
3C000000
78000000
70000000
F0000000
ENDCHAR
STARTCHAR guilsinglleft
ENCODING -1
SWIDTH 399 0
DWIDTH 19 0
BBX 11 22 4 3
BITMAP
0020
0060
00E0
01E0
03E0
0780
0F00
1E00
3C00
7800
F000
F000
7800
3C00
1E00
0F00
0780
03E0
01E0
00E0
0060
0020
ENDCHAR
STARTCHAR guilsinglright
ENCODING -1
SWIDTH 399 0
DWIDTH 19 0
BBX 11 22 5 3
BITMAP
8000
C000
E000
F000
F800
3C00
1E00
0F00
0780
03C0
01E0
01E0
03C0
0780
0F00
1E00
3C00
F800
F000
E000
C000
8000
ENDCHAR
STARTCHAR fi
ENCODING -1
SWIDTH 629 0
DWIDTH 30 0
BBX 25 36 1 0
BITMAP
00FF0780
03FF0780
07FF0780
07FF0780
0F800780
0F000000
0F000000
0F000000
0F000000
0F000000
FFFFFF80
FFFFFF80
FFFFFF80
FFFFFF80
0F000780
0F000780
0F000780
0F000780
0F000780
0F000780
0F000780
0F000780
0F000780
0F000780
0F000780
0F000780
0F000780
0F000780
0F000780
0F000780
0F000780
0F000780
0F000780
0F000780
0F000780
0F000780
ENDCHAR
STARTCHAR fl
ENCODING -1
SWIDTH 629 0
DWIDTH 30 0
BBX 25 36 1 0
BITMAP
00FFFF80
03FFFF80
07FFFF80
07FFFF80
0F800780
0F000780
0F000780
0F000780
0F000780
0F000780
FFFE0780
FFFE0780
FFFE0780
FFFE0780
0F000780
0F000780
0F000780
0F000780
0F000780
0F000780
0F000780
0F000780
0F000780
0F000780
0F000780
0F000780
0F000780
0F000780
0F000780
0F000780
0F000780
0F000780
0F000780
0F000780
0F000780
0F000780
ENDCHAR
STARTCHAR daggerdbl
ENCODING -1
SWIDTH 500 0
DWIDTH 24 0
BBX 22 40 1 -5
BITMAP
007800
007800
007800
007800
007800
007800
007800
007800
007800
007800
FFFFFC
FFFFFC
FFFFFC
FFFFFC
007800
007800
007800
007800
007800
007800
007800
007800
007800
007800
007800
007800
FFFFFC
FFFFFC
FFFFFC
FFFFFC
007800
007800
007800
007800
007800
007800
007800
007800
007800
007800
ENDCHAR
STARTCHAR quotesinglbase
ENCODING -1
SWIDTH 317 0
DWIDTH 15 0
BBX 6 12 4 -6
BITMAP
3C
3C
3C
3C
3C
3C
78
78
70
70
F0
E0
ENDCHAR
STARTCHAR quotedblbase
ENCODING -1
SWIDTH 518 0
DWIDTH 25 0
BBX 15 12 4 -6
BITMAP
3C1E
3C1E
3C1E
3C1E
3C1E
3C1E
783C
783C
7038
7038
F078
E070
ENDCHAR
STARTCHAR perthousand
ENCODING -1
SWIDTH 1341 0
DWIDTH 64 0
BBX 59 37 3 -1
BITMAP
07E0000700000000
1FF8000F00000000
3FFC000E00000000
7C3C001E00000000
781E001C00000000
781E003800000000
F00F007800000000
F00F007000000000
F00F00F000000000
F00F00E000000000
F00F01C000000000
F00F03C000000000
F00F038000000000
781E078000000000
781E070000000000
7C3E0F0000000000
3FFC1E0000000000
1FF81C0000000000
07E03C07E000FC00
0000381FF803FF00
0000783FFC07FF80
0000F07C3E0F87C0
0000E0781E0F03C0
0001E0781E0F03C0
0001C0F00F1E01E0
0003C0F00F1E01E0
000380F00F1E01E0
000700F00F1E01E0
000F00F00F1E01E0
000E00F00F1E01E0
001E00F00F1E01E0
001C00781E0F03C0
003800781E0F03C0
0078007C3C0F8780
0070003FFC07FF80
00F0001FF803FF00
00E00007E000FC00
ENDCHAR
STARTCHAR dotlessi
ENCODING -1
SWIDTH 277 0
DWIDTH 13 0
BBX 4 26 4 0
BITMAP
F0
F0
F0
F0
F0
F0
F0
F0
F0
F0
F0
F0
F0
F0
F0
F0
F0
F0
F0
F0
F0
F0
F0
F0
F0
F0
ENDCHAR
STARTCHAR circumflex
ENCODING -1
SWIDTH 500 0
DWIDTH 24 0
BBX 15 9 5 29
BITMAP
07C0
07C0
0FE0
0EE0
1EF0
3C78
3838
701C
F01E
ENDCHAR
STARTCHAR tilde
ENCODING -1
SWIDTH 500 0
DWIDTH 24 0
BBX 15 7 4 30
BITMAP
1C0E
7F0E
7F8E
F79E
E3FC
E1FC
E070
ENDCHAR
STARTCHAR breve
ENCODING -1
SWIDTH 500 0
DWIDTH 24 0
BBX 15 7 5 31
BITMAP
E00E
E00E
F01E
783C
7FFC
3FF8
0FE0
ENDCHAR
STARTCHAR dotaccent
ENCODING -1
SWIDTH 500 0
DWIDTH 24 0
BBX 5 5 10 31
BITMAP
F8
F8
F8
F8
F8
ENDCHAR
STARTCHAR ring
ENCODING -1
SWIDTH 500 0
DWIDTH 24 0
BBX 13 13 6 29
BITMAP
0F80
3FE0
7FF0
78F0
F078
E038
E038
E038
F078
78F0
7FF0
3FE0
0F80
ENDCHAR
STARTCHAR hungarumlaut
ENCODING -1
SWIDTH 500 0
DWIDTH 24 0
BBX 16 9 6 29
BITMAP
0F0F
1E1E
1E3C
1C3C
3C78
3870
70F0
70E0
E1E0
ENDCHAR
STARTCHAR ogonek
ENCODING -1
SWIDTH 500 0
DWIDTH 24 0
BBX 9 9 8 -9
BITMAP
3800
3000
7000
E000
E000
F080
FF80
7F80
3F80
ENDCHAR
STARTCHAR caron
ENCODING -1
SWIDTH 500 0
DWIDTH 24 0
BBX 15 9 5 29
BITMAP
F01E
701C
3838
3C78
1EF0
0EE0
0FE0
07C0
07C0
ENDCHAR
STARTCHAR Lslash
ENCODING -1
SWIDTH 562 0
DWIDTH 27 0
BBX 27 35 0 0
BITMAP
07800000
07800000
07800000
07800000
07800000
07800000
07800000
07800000
07800000
07800000
07838000
0787C000
078F8000
07BF0000
07FC0000
07F80000
07F00000
07C00000
0F800000
1F800000
7F800000
FF800000
77800000
47800000
07800000
07800000
07800000
07800000
07800000
07800000
07800000
07FFFFE0
07FFFFE0
07FFFFE0
07FFFFE0
ENDCHAR
STARTCHAR lslash
ENCODING -1
SWIDTH 284 0
DWIDTH 14 0
BBX 14 36 0 0
BITMAP
0780
0780
0780
0780
0780
0780
0780
0780
0780
0780
0780
0780
0798
07B8
07FC
07F0
07E0
0F80
1F80
7F80
FF80
7780
0780
0780
0780
0780
0780
0780
0780
0780
0780
0780
0780
0780
0780
0780
ENDCHAR
STARTCHAR Scaron
ENCODING -1
SWIDTH 634 0
DWIDTH 30 0
BBX 25 46 3 -1
BITMAP
0781E000
03C3C000
01E78000
00FF0000
007E0000
007E0000
00000000
00000000
00000000
00FFC000
07FFFC00
0FFFFE00
1FFFFE00
3F807E00
7C000E00
78000200
F8000000
F0000000
F0000000
F0000000
F0000000
F8000000
FC000000
7F000000
7FF00000
3FFF8000
1FFFF000
07FFF800
01FFFC00
001FFE00
0000FF00
00003F00
00000F80
00000F80
00000780
00000780
00000780
00000780
00000F80
80000F00
F0001F00
FE00FE00
FFFFFC00
FFFFF800
3FFFF000
03FF0000
ENDCHAR
STARTCHAR scaron
ENCODING -1
SWIDTH 520 0
DWIDTH 25 0
BBX 20 39 3 -1
BITMAP
1E03C0
0E0380
070700
078F00
03DE00
01DC00
01FC00
00F800
00F800
000000
000000
03FE00
0FFFC0
3FFFE0
7FFFE0
7E01E0
F80020
F00000
F00000
F00000
F00000
F80000
7F0000
7FF000
3FFE00
0FFF80
01FFC0
001FE0
0003F0
0001F0
0000F0
0000F0
0000F0
8001F0
F807E0
FFFFE0
FFFFC0
7FFF00
07FC00
ENDCHAR
STARTCHAR Zcaron
ENCODING -1
SWIDTH 685 0
DWIDTH 33 0
BBX 29 45 2 0
BITMAP
01E07800
00F0F000
0079E000
003FC000
001F8000
001F8000
00000000
00000000
00000000
00000000
7FFFFFF0
7FFFFFF0
7FFFFFF0
7FFFFFF0
000003E0
000007C0
000007C0
00000F80
00001F00
00003E00
00007C00
0000FC00
0000F800
0001F000
0003E000
0007C000
000F8000
001F8000
001F0000
003E0000
007C0000
00F80000
01F00000
03F00000
03E00000
07C00000
0F800000
1F000000
3F000000
3E000000
7C000000
FFFFFFF8
FFFFFFF8
FFFFFFF8
FFFFFFF8
ENDCHAR
STARTCHAR zcaron
ENCODING -1
SWIDTH 524 0
DWIDTH 25 0
BBX 21 38 2 0
BITMAP
0F01E0
0701C0
038380
03C780
01EF00
00EE00
00FE00
007C00
007C00
000000
000000
000000
7FFFF8
7FFFF8
7FFFF8
7FFFF8
0001F0
0003F0
0007E0
0007C0
000F80
001F00
003E00
007C00
00FC00
01F800
01F000
03E000
07C000
0F8000
1F8000
3F0000
7E0000
7C0000
FFFFF8
FFFFF8
FFFFF8
FFFFF8
ENDCHAR
STARTCHAR minus
ENCODING -1
SWIDTH 837 0
DWIDTH 40 0
BBX 30 4 5 13
BITMAP
FFFFFFFC
FFFFFFFC
FFFFFFFC
FFFFFFFC
ENDCHAR
STARTCHAR Gbreve
ENCODING -1
SWIDTH 774 0
DWIDTH 37 0
BBX 31 46 3 -1
BITMAP
00700700
00780F00
003C1E00
003FFE00
001FFC00
0007F000
00000000
00000000
00000000
0007FE00
003FFFE0
00FFFFF8
03FFFFFC
07F803FC
0FC0007C
1F80000C
1F000004
3E000000
3C000000
78000000
78000000
78000000
F8000000
F0000000
F0000000
F0000000
F0000000
F0001FFE
F0001FFE
F0001FFE
F0001FFE
F000001E
F800001E
7800001E
7800001E
7C00001E
3C00001E
3E00001E
1F00001E
1F80001E
0FE0003E
07FC01FE
03FFFFFC
00FFFFF8
003FFFC0
0007FE00
ENDCHAR
STARTCHAR gbreve
ENCODING -1
SWIDTH 634 0
DWIDTH 30 0
BBX 23 48 3 -10
BITMAP
070070
070070
0780F0
03C1E0
03FFE0
01FFC0
007F00
000000
000000
000000
000000
01FC00
07FF1E
0FFF9E
1FFFDE
3F83FE
3E00FE
7C007E
78003E
78003E
F8003E
F0001E
F0001E
F0001E
F0001E
F0001E
F0001E
F0001E
F0003E
78003E
78003E
7C007E
3E00FE
3F83FE
1FFFDE
0FFF9E
07FF1E
01FC1E
00001E
00003C
00003C
00007C
1000F8
1E03F8
1FFFF0
1FFFE0
0FFFC0
01FE00
ENDCHAR
STARTCHAR Idotaccent
ENCODING -1
SWIDTH 294 0
DWIDTH 14 0
BBX 5 44 5 0
BITMAP
F8
F8
F8
F8
F8
00
00
00
00
F0
F0
F0
F0
F0
F0
F0
F0
F0
F0
F0
F0
F0
F0
F0
F0
F0
F0
F0
F0
F0
F0
F0
F0
F0
F0
F0
F0
F0
F0
F0
F0
F0
F0
F0
ENDCHAR
STARTCHAR Scedilla
ENCODING -1
SWIDTH 634 0
DWIDTH 30 0
BBX 25 45 3 -9
BITMAP
00FFC000
07FFFC00
0FFFFE00
1FFFFE00
3F807E00
7C000E00
78000200
F8000000
F0000000
F0000000
F0000000
F0000000
F8000000
FC000000
7F000000
7FF00000
3FFF8000
1FFFF000
07FFF800
01FFFC00
001FFE00
0000FF00
00003F00
00000F80
00000F80
00000780
00000780
00000780
00000780
00000F80
80000F00
F0001F00
FE00FE00
FFFFFC00
FFFFF800
3FFFF000
03FF0000
00060000
00070000
00038000
00038000
01078000
01FF8000
01FF0000
01FC0000
ENDCHAR
STARTCHAR scedilla
ENCODING -1
SWIDTH 520 0
DWIDTH 25 0
BBX 20 36 3 -9
BITMAP
03FE00
0FFFC0
3FFFE0
7FFFE0
7E01E0
F80020
F00000
F00000
F00000
F00000
F80000
7F0000
7FF000
3FFE00
0FFF80
01FFC0
001FE0
0003F0
0001F0
0000F0
0000F0
0000F0
8001F0
F807E0
FFFFE0
FFFFC0
7FFF00
07FC00
001800
001C00
000E00
000E00
041E00
07FE00
07FC00
07F000
ENDCHAR
STARTCHAR Cacute
ENCODING -1
SWIDTH 698 0
DWIDTH 34 0
BBX 28 46 3 -1
BITMAP
00007800
0000F800
0000F000
0001E000
0003C000
00078000
00000000
00000000
00000000
000FFC00
007FFF80
01FFFFE0
03FFFFF0
07F807F0
0FC000F0
1F800030
1F000010
3E000000
3C000000
78000000
78000000
78000000
F8000000
F0000000
F0000000
F0000000
F0000000
F0000000
F0000000
F0000000
F0000000
F0000000
F0000000
78000000
78000000
78000000
3C000000
3E000000
1F000010
1F800030
0FC000F0
07F807F0
03FFFFF0
01FFFFE0
007FFF80
000FFC00
ENDCHAR
STARTCHAR cacute
ENCODING -1
SWIDTH 549 0
DWIDTH 26 0
BBX 21 39 3 -1
BITMAP
0001F0
0003E0
0003C0
000780
000F00
001E00
001E00
003C00
007800
000000
000000
007F80
01FFF0
07FFF8
0FFFF8
1FC078
3F0008
3E0000
7C0000
780000
F80000
F00000
F00000
F00000
F00000
F00000
F00000
F00000
F00000
F80000
780000
7C0000
3E0000
3F0008
1FC078
0FFFF8
07FFF8
03FFF0
007F80
ENDCHAR
STARTCHAR Ccaron
ENCODING -1
SWIDTH 698 0
DWIDTH 34 0
BBX 28 46 3 -1
BITMAP
00781E00
003C3C00
001E7800
000FF000
0007E000
0007E000
00000000
00000000
00000000
000FFC00
007FFF80
01FFFFE0
03FFFFF0
07F807F0
0FC000F0
1F800030
1F000010
3E000000
3C000000
78000000
78000000
78000000
F8000000
F0000000
F0000000
F0000000
F0000000
F0000000
F0000000
F0000000
F0000000
F0000000
F0000000
78000000
78000000
78000000
3C000000
3E000000
1F000010
1F800030
0FC000F0
07F807F0
03FFFFF0
01FFFFE0
007FFF80
000FFC00
ENDCHAR
STARTCHAR ccaron
ENCODING -1
SWIDTH 549 0
DWIDTH 26 0
BBX 21 39 3 -1
BITMAP
0780F0
0380E0
01C1C0
01E3C0
00F780
007700
007F00
003E00
003E00
000000
000000
007F80
01FFF0
07FFF8
0FFFF8
1FC078
3F0008
3E0000
7C0000
780000
F80000
F00000
F00000
F00000
F00000
F00000
F00000
F00000
F00000
F80000
780000
7C0000
3E0000
3F0008
1FC078
0FFFF8
07FFF8
03FFF0
007F80
ENDCHAR
STARTCHAR dcroat
ENCODING -1
SWIDTH 634 0
DWIDTH 30 0
BBX 27 37 3 -1
BITMAP
00001E00
00001E00
00001E00
001FFFE0
001FFFE0
001FFFE0
00001E00
00001E00
00001E00
00FC1E00
07FF1E00
0FFF9E00
1FFFDE00
3F83FE00
3E00FE00
7C007E00
78003E00
78003E00
F8003E00
F0001E00
F0001E00
F0001E00
F0001E00
F0001E00
F0001E00
F0001E00
F0001E00
F8003E00
78003E00
78003E00
7C007E00
3E00FE00
3F83FE00
1FFFDE00
0FFF9E00
07FF1E00
01FC0000
ENDCHAR
STARTCHAR periodcentered
ENCODING -1
SWIDTH 317 0
DWIDTH 15 0
BBX 4 6 5 14
BITMAP
F0
F0
F0
F0
F0
F0
ENDCHAR
STARTCHAR Euro
ENCODING -1
SWIDTH 636 0
DWIDTH 31 0
BBX 28 37 0 -1
BITMAP
0001FE00
0007FFC0
001FFFE0
003FFFF0
007F03F0
00FC0070
00F80030
01F00010
01E00000
03E00000
03C00000
03C00000
07C00000
7FFFFE00
7FFFFC00
FFFFFC00
07800000
07800000
07800000
07800000
07800000
7FFFF000
7FFFE000
FFFFE000
07C00000
03C00000
03C00000
03E00000
01E00000
01F00010
00F80030
00FC0070
007F01F0
003FFFF0
001FFFE0
0007FFC0
0001FE00
ENDCHAR
STARTCHAR c6459
ENCODING -1
SWIDTH 500 0
DWIDTH 24 0
BBX 14 5 5 30
BITMAP
F87C
F87C
F87C
F87C
F87C
ENDCHAR
STARTCHAR c6460
ENCODING -1
SWIDTH 500 0
DWIDTH 24 0
BBX 8 6 9 30
BITMAP
0F
1F
1E
3C
78
F0
ENDCHAR
STARTCHAR c6461
ENCODING -1
SWIDTH 500 0
DWIDTH 24 0
BBX 15 5 4 30
BITMAP
3E0E
7F8E
FFFC
E3FC
E0F8
ENDCHAR
STARTCHAR c6462
ENCODING -1
SWIDTH 500 0
DWIDTH 24 0
BBX 9 6 6 30
BITMAP
F800
7C00
3C00
1E00
0F00
0780
ENDCHAR
STARTCHAR c6463
ENCODING -1
SWIDTH 500 0
DWIDTH 24 0
BBX 14 6 5 30
BITMAP
0FC0
0FC0
1FE0
3CF0
7878
F03C
ENDCHAR
STARTCHAR c6466
ENCODING -1
SWIDTH 500 0
DWIDTH 24 0
BBX 14 6 5 30
BITMAP
F03C
7878
3CF0
1FE0
0FC0
0FC0
ENDCHAR
STARTCHAR c6467
ENCODING -1
SWIDTH 400 0
DWIDTH 19 0
BBX 16 20 1 16
BITMAP
0078
00F8
01F8
01F8
03B8
0738
0638
0E38
1C38
3838
3038
7038
E038
FFFF
FFFF
FFFF
0038
0038
0038
0038
ENDCHAR
STARTCHAR c6468
ENCODING -1
SWIDTH 500 0
DWIDTH 24 0
BBX 15 6 5 30
BITMAP
E00E
F01E
783C
7FFC
3FF8
0FE0
ENDCHAR
STARTCHAR c6469
ENCODING -1
SWIDTH 500 0
DWIDTH 24 0
BBX 5 5 10 30
BITMAP
F8
F8
F8
F8
F8
ENDCHAR
ENDFONT
